<?xml version="1.0" encoding="iso-8859-1"?>
<!-- Generator: Adobe Illustrator 19.0.0, SVG Export Plug-In . SVG Version: 6.00 Build 0)  -->
<svg xmlns="http://www.w3.org/2000/svg" xmlns:xlink="http://www.w3.org/1999/xlink" version="1.1" id="Layer_1" x="0px" y="0px" viewBox="0 0 512.001 512.001" style="enable-background:new 0 0 512.001 512.001;" xml:space="preserve" width="512" height="512">
<g style="fill: #5a080e;" id="XMLID_215_">
	<path id="XMLID_216_" d="M465.365,223.765c-0.764-5.603-4.245-10.485-9.313-13.063c-5.144-2.614-11.244-2.543-16.32,0.192   l-10.871,5.864l-78.768-55.847l-15.873-80.391c5.131-5.738,8.258-13.303,8.258-21.588c0-17.88-14.547-32.427-32.427-32.427   c-12.42,0-23.227,7.022-28.672,17.302h-11.985c-6.983,0-12.664-5.681-12.664-12.664V7.5c0-4.143-3.358-7.5-7.5-7.5   s-7.5,3.357-7.5,7.5v23.644c0,15.254,12.41,27.664,27.664,27.664h8.232c0,0.042-0.003,0.083-0.003,0.125   c0,3.115,0.45,6.124,1.274,8.977c-1.862,2.782-3.888,5.508-6.046,8.178c-1.005,0.171-2.03,0.271-3.058,0.271H187.72   c-9.769,0-17.741-7.836-17.963-17.552h18.361c15.254,0,27.665-12.41,27.665-27.664V7.5c0-4.143-3.358-7.5-7.5-7.5   s-7.5,3.357-7.5,7.5v23.644c0,6.983-5.681,12.664-12.665,12.664h-18.782c-0.185,0-0.365,0.021-0.549,0.028   c-0.151-0.009-0.301-0.023-0.455-0.023c-15.573,0-29.741,9.786-35.255,24.351c-5.849,15.452-5.704,32.254,0.158,47.375   l-57.661,163.05H63.862c-5.766,0-11.169,2.836-14.455,7.586c-3.236,4.678-3.978,10.628-1.984,15.917   c4.019,10.662,14.785,23.646,43.017,26.58c-1.463,8.11-2.57,15.316-3.389,21.296c-1.74,12.706,11.153,22.958,23.157,18.375   l55.185-21.077l26.958,158.492c0.623,3.658,3.795,6.243,7.385,6.243c0.417,0,0.841-0.035,1.267-0.107   c4.083-0.694,6.831-4.567,6.136-8.651l-27.458-161.433l3.204-1.224c6.611-2.523,11.054-8.975,11.054-16.053   c0-3.45,0.601-6.78,1.693-9.895c9.814,7.323,15.436,19.148,14.634,31.695c-0.474,7.415,3.448,14.258,9.902,17.651l8.236,140.955   c0.233,3.986,3.539,7.063,7.48,7.063c0.147,0,0.295-0.004,0.444-0.013c4.135-0.241,7.292-3.79,7.05-7.925l-7.825-133.919   l33.997,13.304l-15.63,120.084c-0.534,4.107,2.362,7.87,6.47,8.405c0.328,0.043,0.654,0.063,0.978,0.063   c3.711,0,6.936-2.754,7.428-6.533l14.898-114.462c8.387,7.07,13.16,17.797,12.43,29.231l0,0.002c0,0.001,0,0.001,0,0.002   c-0.489,7.653,3.87,14.937,10.846,18.126l18.975,8.671c8.781,4.013,15.033-9.622,6.234-13.643l-18.974-8.671   c-1.358-0.621-2.207-2.039-2.112-3.528l4.268-66.782c0.367-3.679,4.854-52.358-9.708-90.255c-1.485-3.865-5.822-5.798-9.691-4.311   c-3.866,1.486-5.796,5.825-4.311,9.691c13.517,35.173,8.822,83.013,8.774,83.488c-0.011,0.097-0.019,0.194-0.024,0.291   l-1.988,31.107c-5.139-5.739-11.647-10.349-19.203-13.306l-51.676-20.223c-1.475-0.578-2.398-2.028-2.297-3.608l3.555-55.639   l31.875-10.183c7.15-2.284,11.955-8.862,11.955-16.368c0-14.523,9.887-26.932,24.043-30.176l19.99-4.58   c23.286,22.255,42.354,54.262,56.704,95.198c3.198,9.119,17.349,4.146,14.156-4.963c-13.738-39.186-31.76-70.794-53.667-94.175   l11.663-2.672c2.623-0.601,4.952-1.773,6.915-3.337l63.288,47.835c3.275,2.879,7.422,4.36,11.588,4.359   c3.182,0,6.375-0.863,9.201-2.626C463.244,253.26,466.959,235.628,465.365,223.765z M310.052,41.506   c9.609,0,17.427,7.817,17.427,17.427s-7.817,17.427-17.427,17.427s-17.428-7.817-17.428-17.427S300.443,41.506,310.052,41.506z    M147.106,73.474c1.606-4.243,4.439-7.803,7.991-10.357c2.299,15.948,16.05,28.243,32.624,28.243h70.777   c-18.036,16.822-40.221,30.585-58.344,40.314c-5.512,2.959-10.854,6.347-16.031,10.145c-14.179-3.056-26.385-12.026-33.679-24.865   C142.893,103.664,141.676,87.816,147.106,73.474z M170.379,153.246c-3.665,3.43-7.221,7.122-10.691,11.019l3.779-14.276   C165.703,151.202,168.007,152.295,170.379,153.246z M212.59,309.974c-2.526-2.887-5.389-5.506-8.552-7.797   c2.708-2.378,5.88-4.275,9.406-5.569L212.59,309.974z M342.163,209.111l-48.848,11.191c-7.959,1.824-15.005,5.602-20.693,10.759   v-34.484c0-12.558,2.542-24.764,7.556-36.277c1.653-3.798-0.085-8.217-3.883-9.87s-8.217,0.086-9.871,3.882   c-5.84,13.415-8.802,27.635-8.802,42.266v68.521v0c0,0,0,0,0,0.001c0,0.953-0.61,1.789-1.52,2.079l-46.013,14.699   c-6.121,1.956-11.576,5.125-16.15,9.185v-24.899c0-0.095-0.002-0.193-0.005-0.288c-0.024-0.625-2.078-62.777,23.538-88.78   c2.907-2.951,2.872-7.699-0.08-10.606c-2.952-2.908-7.701-2.871-10.606,0.079c-29.761,30.211-28.006,95.24-27.847,99.734v58.229   c0,0.899-0.564,1.719-1.404,2.039l-72.678,27.758c-1.535,0.592-3.161-0.739-2.944-2.326c2.171-15.854,6.396-40.519,14.196-67.987   c1.131-3.984-1.182-8.132-5.167-9.264c-3.982-1.13-8.131,1.182-9.263,5.166c-3.408,12.001-6.147,23.471-8.35,33.959   c-17.215-1.527-28.224-7.4-31.871-17.076c-0.339-0.899-0.033-1.635,0.284-2.093c0.233-0.336,0.906-1.119,2.119-1.119h17.015   c3.178,0,6.011-2.003,7.071-4.999l55.111-155.838c2.247,2.856,4.708,5.506,7.355,7.932l-15.309,57.833   c-8.205,14.058-15.634,29.873-22.26,47.418c-3.405,9.017,10.617,14.344,14.032,5.299c19.864-52.598,46.905-88.377,80.372-106.343   c36.475-19.582,63.334-40.7,80.036-62.895c0.196,0.194,0.398,0.382,0.599,0.571c-0.018,0.102-0.042,0.2-0.056,0.303   c-0.019,0.139-1.885,14.005-5.517,27.559c-2.499,9.324,11.981,13.244,14.488,3.883c2.471-9.222,4.152-18.393,5.069-24   c0.45,0.117,0.905,0.222,1.362,0.32c1.552,16.157,4.874,62.374-4.032,94.162c-2.606,9.296,11.831,13.372,14.443,4.047   c9.473-33.811,6.349-80.565,4.64-98.542c0.824-0.217,1.634-0.469,2.431-0.748l23.104,117.01   C344.047,207.726,343.322,208.846,342.163,209.111z M428.561,257.239c-0.928,0.579-2.157,0.449-2.987-0.315   c-0.18-0.166-0.367-0.322-0.562-0.47l-66.175-50.017c-0.032-0.92-0.119-1.849-0.304-2.783l-4.218-21.362l69.669,49.396   c2.325,1.65,5.388,1.838,7.898,0.483l14.97-8.074c1.076-0.578,2.037-0.21,2.4-0.024c0.498,0.253,1.118,0.756,1.247,1.703   C452.321,239.316,439.572,250.361,428.561,257.239z"/>
	<path id="XMLID_224_" d="M397.708,354.013c-1.053-4.006-5.155-6.401-9.161-5.345c-4.006,1.054-6.398,5.155-5.345,9.161   c10.974,41.717,14.996,80.87,16.418,100.496c0.198,2.716-2.648,4.675-5.124,3.547l-30.959-14.147   c-3.768-1.721-8.217-0.063-9.938,3.704c-1.722,3.768-0.063,8.217,3.704,9.938l30.959,14.147   c12.672,5.792,27.322-4.418,26.319-18.273C412.799,432.636,408.425,394.753,397.708,354.013z"/>
</g>















</svg>
