<svg height="496pt" viewBox="0 0 496 496" width="496pt" xmlns="http://www.w3.org/2000/svg"><path d="m296 56h-88v-48c0-4.414062-3.585938-8-8-8h-96c-4.414062 0-8 3.585938-8 8v48h-88c-4.414062 0-8 3.585938-8 8v328h96v-40h112v40h96v-328c0-4.414062-3.585938-8-8-8zm0 0" fill="#c7ebf2"/><path d="m96 352v-344c0-4.414062 3.585938-8 8-8h96c4.414062 0 8 3.585938 8 8v344zm0 0" fill="#c5d998"/><path d="m232 308.359375 80 27.640625 80-27.640625v-52.359375l-30.054688-8.945312c-33.015624-9.824219-68.183593-9.742188-101.152343.234374l-28.792969 8.710938zm0 0" fill="#9c9792"/><path d="m464 360v-32c0-8.839844 7.160156-16 16-16s16 7.160156 16 16v32zm0 0" fill="#fcb641"/><path d="m480 248h-21l-144.152344-54.910156c-1.832031-.699219-3.863281-.699219-5.695312 0l-147.230469 56.085937c-6.640625 2.527344-6.9375 11.816407-.464844 14.761719l70.542969 32.0625v-34.046875c0-3.539063 2.320312-6.648437 5.703125-7.664063l23.730469-7.121093c13.917968-4.175781 28.238281-6.480469 42.605468-7.136719l-.039062 63.960938 16 .007812.03125-63.960938c14.351562.65625 28.640625 2.960938 42.535156 7.128907l23.730469 7.121093c3.382813 1.015626 5.703125 4.125 5.703125 7.664063v34.046875l70.398438-32h9.601562v32h16v-40c0-4.414062-3.585938-8-8-8zm0 0" fill="#706d69"/><path d="m424 416h-24c4.414062 0 8-3.585938 8-8v-64c0-4.414062-3.585938-8-8-8h-352c-4.414062 0-8 3.585938-8 8v64c0 4.414062 3.585938 8 8 8h-24c-4.414062 0-8 3.585938-8 8v64c0 4.414062 3.585938 8 8 8h400c4.414062 0 8-3.585938 8-8v-64c0-4.414062-3.585938-8-8-8zm0 0" fill="#fcb641"/><path d="m24 496c-4.414062 0-8-3.585938-8-8v-64c0-4.414062 3.585938-8 8-8h400c4.414062 0 8 3.585938 8 8v64c0 4.414062-3.585938 8-8 8zm0 0" fill="#e65039"/><path d="m72 336v80h-24c-4.414062 0-8-3.585938-8-8v-64c0-4.414062 3.585938-8 8-8zm0 0" fill="#fce0b0"/><path d="m128 416v-80h32v80zm0 0" fill="#fce0b0"/><path d="m408 344v64c0 4.414062-3.585938 8-8 8h-24v-80h24c4.414062 0 8 3.585938 8 8zm0 0" fill="#fce0b0"/><path d="m200 368h136v16h-136zm0 0" fill="#fce0b0"/><path d="m120 448h128v16h-128zm0 0" fill="#fab9af"/><path d="m264 448h64v16h-64zm0 0" fill="#fab9af"/><path d="m0 112h96v32h-96zm0 0" fill="#a9e6f2"/><path d="m96 56h112v32h-112zm0 0" fill="#aac56c"/><path d="m304 144h-96v-32h96zm0 0" fill="#a9e6f2"/><g fill="#c7ebf2"><path d="m464 168h16v16h-16zm0 0"/><path d="m464 200h16v16h-16zm0 0"/><path d="m448 184h16v16h-16zm0 0"/><path d="m480 184h16v16h-16zm0 0"/><path d="m392 88h16v16h-16zm0 0"/><path d="m392 120h16v16h-16zm0 0"/><path d="m376 104h16v16h-16zm0 0"/><path d="m408 104h16v16h-16zm0 0"/></g><path d="m56 496v-80h32v80zm0 0" fill="#fab9af"/><path d="m360 496v-80h32v80zm0 0" fill="#fab9af"/></svg>