<svg height="512pt" viewBox="-8 0 512 512" width="512pt" xmlns="http://www.w3.org/2000/svg"><path d="m136 40-8-32h104l-16 64h-56v-32zm0 0" fill="#def7b5"/><path d="m216 200 8 40h-96l8-40zm0 0" fill="#def7b5"/><path d="m136 304-8-32h96l-8 64h-56v-32zm0 0" fill="#def7b5"/><path d="m216 464 8 40h-96l8-40zm0 0" fill="#def7b5"/><path d="m238.304688 3.078125c-1.515626-1.941406-3.84375-3.078125-6.304688-3.078125h-104c-2.460938 0-4.789062 1.136719-6.304688 3.078125-1.515624 1.941406-2.054687 4.472656-1.453124 6.863281l8 32c.890624 3.558594 4.085937 6.058594 7.757812 6.058594h16v24c0 4.417969 3.578125 8 8 8h56c3.671875 0 6.867188-2.5 7.757812-6.058594l16-64c.601563-2.390625.0625-4.921875-1.453124-6.863281zm-28.554688 60.921875h-9.75v-32h-16v32h-16v-24c0-4.417969-3.578125-8-8-8h-17.75l-4-16h83.5zm0 0" fill="#8cc63f"/><path d="m128 248h96c2.398438 0 4.664062-1.074219 6.1875-2.929688 1.515625-1.851562 2.125-4.289062 1.65625-6.640624l-8-40c-.75-3.738282-4.03125-6.429688-7.84375-6.429688h-80c-3.8125 0-7.09375 2.691406-7.84375 6.429688l-8 40c-.46875 2.351562.140625 4.789062 1.65625 6.640624 1.523438 1.855469 3.789062 2.929688 6.1875 2.929688zm14.554688-40h25.445312v16h16v-16h25.445312l4.796876 24h-76.484376zm0 0" fill="#8cc63f"/><path d="m224 264h-96c-2.460938 0-4.789062 1.136719-6.304688 3.078125-1.515624 1.941406-2.054687 4.472656-1.453124 6.863281l8 32c.890624 3.558594 4.085937 6.058594 7.757812 6.058594h16v24c0 4.417969 3.578125 8 8 8h56c4.03125 0 7.4375-3.003906 7.9375-7.007812l8-64c.289062-2.277344-.421875-4.566407-1.9375-6.285157-1.523438-1.722656-3.703125-2.707031-6-2.707031zm-15.0625 64h-8.9375v-32h-16v32h-16v-24c0-4.417969-3.578125-8-8-8h-17.75l-4-16h76.6875zm0 0" fill="#8cc63f"/><path d="m216 456h-80c-3.8125 0-7.09375 2.691406-7.84375 6.429688l-8 40c-.46875 2.351562.140625 4.789062 1.65625 6.640624 1.523438 1.855469 3.789062 2.929688 6.1875 2.929688h96c2.398438 0 4.664062-1.074219 6.1875-2.929688 1.515625-1.851562 2.125-4.289062 1.65625-6.640624l-8-40c-.75-3.738282-4.03125-6.429688-7.84375-6.429688zm-78.242188 40 4.796876-24h25.445312v16h16v-16h25.445312l4.796876 24zm0 0" fill="#8cc63f"/><g fill="#ffb398"><path d="m160 72h64v32h-64zm0 0"/><path d="m160 104h64v32h-64zm0 0"/><path d="m128 136h96v32h-96zm0 0"/><path d="m128 168h96v32h-96zm0 0"/><path d="m160 136v-96h-48l-32 32h-24v128h72v-112 48zm0 0"/></g><path d="m0 72h56v128h-56zm0 0" fill="#ff0c38"/><path d="m160 336h64v32h-64zm0 0" fill="#ffb398"/><path d="m160 368h64v32h-64zm0 0" fill="#ffb398"/><path d="m128 400h96v32h-96zm0 0" fill="#ffb398"/><path d="m128 432h96v32h-96zm0 0" fill="#ffb398"/><path d="m160 400v-96h-48l-32 32h-24v128h72v-112 48zm0 0" fill="#ffb398"/><path d="m0 336h56v128h-56zm0 0" fill="#ffd422"/><path d="m352 240h32c0-26.507812-21.492188-48-48-48h-32c0 26.507812 21.492188 48 48 48zm0 0" fill="#4c8e1e"/><path d="m416 272h-32c0-26.507812 21.492188-48 48-48h32c0 26.507812-21.492188 48-48 48zm0 0" fill="#4c8e1e"/><path d="m376 160h16v152h-16zm0 0" fill="#69c229"/><path d="m408 104c0 6.640625-2.71875 12.640625-7.039062 16.960938-.320313.320312-.640626.640624-.960938.878906v14.160156h-32v-14.160156c-4.960938-4.320313-8-10.71875-8-17.839844 0-6.640625 2.71875-12.640625 7.039062-16.960938 4.320313-4.320312 10.320313-7.039062 16.960938-7.039062s12.640625 2.71875 16.960938 7.039062c4.320312 4.320313 7.039062 10.320313 7.039062 16.960938zm0 0" fill="#ffd422"/><path d="m384 168c-8.835938 0-16-7.164062-16-16v-16h32v16c0 8.835938-7.164062 16-16 16zm0 0" fill="#5dab24"/><path d="m376 40h16v16h-16zm0 0" fill="#ffd422"/><path d="m333.085938 64.40625 11.3125-11.320312 11.320312 11.3125-11.3125 11.320312zm0 0" fill="#ffd422"/><path d="m320 96h16v16h-16zm0 0" fill="#ffd422"/><path d="m432 96h16v16h-16zm0 0" fill="#ffd422"/><path d="m412.28125 64.398438 11.320312-11.3125 11.3125 11.320312-11.320312 11.3125zm0 0" fill="#ffd422"/><path d="m312 336h56v32h-56zm0 0" fill="#ffb398"/><path d="m312 368h56v32h-56zm0 0" fill="#ffb398"/><path d="m312 400h88v32h-88zm0 0" fill="#ffb398"/><path d="m312 432h88v32h-88zm0 0" fill="#ffb398"/><path d="m368 384v-80h40l32 32h24v128h-64v-96 16c0 8.835938-7.164062 16-16 16s-16-7.164062-16-16zm0 0" fill="#ffb398"/><path d="m464 336h32v128h-32zm0 0" fill="#29485a"/><path d="m392 360v24c0 4.417969-3.582031 8-8 8h-8c-4.417969 0-8-3.582031-8-8v-48h-16v24h-40v16h40v16h-40v16h72c2.804688 0 5.5-.484375 8-1.371094v17.371094h-80v16h80v24h16v-104zm0 0" fill="#fe946f"/><path d="m144 360v24c0 4.417969 3.582031 8 8 8h8c4.417969 0 8-3.582031 8-8v-48h16v24h40v16h-40v16h40v16h-72c-2.804688 0-5.5-.484375-8-1.371094v17.371094h80v16h-80v24h-16v-104zm0 0" fill="#fe946f"/><path d="m144 96v24c0 4.417969 3.582031 8 8 8h8c4.417969 0 8-3.582031 8-8v-48h16v24h40v16h-40v16h40v16h-72c-2.804688 0-5.5-.484375-8-1.371094v17.371094h80v16h-80v24h-16v-104zm0 0" fill="#fe946f"/></svg>