<svg height="466pt" viewBox="0 0 466 466.00007" width="466pt" xmlns="http://www.w3.org/2000/svg"><path d="m365.371094 264.730469c55.578125.003906 100.628906 45.058593 100.628906 100.636719 0 55.578124-45.054688 100.632812-100.632812 100.632812-55.578126 0-100.632813-45.050781-100.636719-100.628906-.003907-55.585938 45.054687-100.644532 100.640625-100.640625zm0 0" fill="#fedb41"/><path d="m164.878906 212.039062h36.210938c27.714844 0 50.1875 22.464844 50.191406 50.179688v44.371094h-126.691406v-69.46875zm0 0" fill="#00ceb4"/><path d="m235.820312 30.070312c15.167969 10.570313 18.894532 31.4375 8.324219 46.605469-10.570312 15.167969-31.4375 18.894531-46.605469 8.324219v-11.53125c.023438-12.136719-2.980468-24.085938-8.738281-34.769531 10.660157-14.839844 31.988281-19.097657 47.019531-8.628907zm0 0" fill="#404e51"/><path d="m164.878906 185.710938c-23.464844 16.367187-54.441406 17.125-78.679687 1.917968-22.078125-13.796875-35.523438-37.972656-35.597657-64.007812v-36.261719c4.339844 1.109375 82.277344 20.21875 115.789063-37.660156 0 0 6.238281 24.941406 31.148437 37.511719v36.410156c-.078124 24.789062-12.277343 47.976562-32.660156 62.089844zm0 0" fill="#f7caa5"/><path d="m197.539062 85v2.210938c-24.910156-12.570313-31.148437-37.511719-31.148437-37.511719-33.511719 57.878906-111.449219 38.769531-115.789063 37.660156v-13.890625c-.011718-8.136719 1.335938-16.222656 3.976563-23.917969h.011719c1.488281.4375 63.859375 18.558594 100.058594-42.699219l.082031-.171874c26.09375 11.988281 42.8125 38.074218 42.808593 66.789062zm0 0" fill="#404e51"/><path d="m164.878906 211.390625v.648437l-40.289062 25.082032-38.390625-25.082032v-24.410156c24.238281 15.207032 55.214843 14.449219 78.679687-1.917968zm0 0" fill="#edb288"/><path d="m154.730469 6.679688-.082031.171874c-36.199219 61.257813-98.570313 43.136719-100.058594 42.699219 6.765625-19.613281 21.503906-35.453125 40.574218-43.617187 19.070313-8.164063 40.703126-7.894532 59.566407.746094zm0 0" fill="#4b5d63"/><path d="m86.199219 212.039062 38.390625 25.082032v69.46875h-124.589844v-44.371094c.00390625-27.710938 22.46875-50.175781 50.179688-50.179688zm0 0" fill="#00efd1"/><path d="m92.71875 143.488281c-11.339844 0-20.535156-9.195312-20.527344-20.539062 0-4.417969 3.582032-8 8-8 4.417969 0 8 3.582031 8 8 0 2.503906 2.027344 4.535156 4.535156 4.535156 2.503907 0 4.535157-2.03125 4.535157-4.535156 0-4.417969 3.578125-8 8-8 4.417969 0 8 3.582031 8 8-.015625 11.339843-9.203125 20.527343-20.542969 20.539062zm0 0" fill="#edb288"/><path d="m155.421875 143.488281c-11.347656.007813-20.546875-9.191406-20.542969-20.539062 0-4.417969 3.582032-8 8-8 4.417969 0 8 3.582031 8 8 0 2.507812 2.035156 4.539062 4.542969 4.539062 2.503906 0 4.539063-2.03125 4.539063-4.539062 0-4.417969 3.582031-8 8-8 4.417968 0 8 3.582031 8 8-.011719 11.339843-9.203126 20.527343-20.539063 20.539062zm0 0" fill="#edb288"/><path d="m404.53125 381.761719h-44.761719c-4.417969 0-8-3.582031-8-8v-58.742188c0-4.417969 3.582031-8 8-8s8 3.582031 8 8v50.742188h36.761719c4.417969 0 8 3.578125 8 8 0 4.417969-3.582031 8-8 8zm0 0" fill="#00acea"/><g fill="#fedb41"><path d="m376.472656 86.566406c-1.515625-1.484375-3.554687-2.308594-5.675781-2.285156-2.117187.019531-4.144531.882812-5.625 2.398438l-10.171875 10.390624v-42.898437c-.03125-12.285156-4.941406-24.054687-13.65625-32.714844-8.710938-8.660156-20.507812-13.5-32.792969-13.457031h-53.421875c-4.417968 0-8 3.582031-8 8s3.582032 8 8 8h53.421875c8.042969-.050781 15.773438 3.105469 21.484375 8.765625 5.714844 5.660156 8.941406 13.363281 8.964844 21.40625v43.003906l-10.398438-10.519531c-3.105468-3.144531-8.175781-3.179688-11.324218-.078125-3.144532 3.105469-3.183594 8.175781-.078125 11.320313l24.078125 24.382812.015625.015625c.152343.152344.316406.296875.480469.441406.035156.027344.0625.058594.09375.085938 1.015624.839843 2.226562 1.417969 3.519531 1.675781h.03125c.242187.050781.5.257812.75.285156.25.023438.53125.207032.796875.207032h.015625c.183593 0 .367187-.183594.546875-.199219 1.414062-.125 2.765625-.617188 3.925781-1.433594.023437-.015625.042969-.074219.066406-.089844.191407-.132812.375-.292969.554688-.441406.066406-.054687.132812-.132813.199219-.191406.128906-.113281.257812-.230469.378906-.355469l.027344-.027344 23.902343-24.378906c3.085938-3.15625 3.039063-8.214844-.109375-11.308594zm0 0"/><path d="m210.871094 442h-53.421875c-8.042969.050781-15.773438-3.105469-21.484375-8.765625-5.714844-5.660156-8.941406-13.363281-8.964844-21.40625v-43.003906l10.398438 10.519531c3.105468 3.144531 8.175781 3.183594 11.324218.078125 3.144532-3.105469 3.183594-8.171875.078125-11.320313l-24.078125-24.382812-.015625-.015625c-.15625-.152344-.316406-.296875-.484375-.441406-.03125-.027344-.0625-.058594-.09375-.085938-1.015625-.839843-2.222656-1.417969-3.519531-1.675781h-.027344c-.246093-.050781-.5-.257812-.75-.285156-.25-.023438-.53125-.207032-.800781-.207032h-.011719c-.183593 0-.367187.183594-.550781.199219-1.410156.125-2.765625.617188-3.925781 1.433594-.019531.015625-.042969.074219-.0625.089844-.191407.132812-.378907.292969-.554688.441406-.070312.054687-.132812.132813-.203125.191406-.128906.113281-.257812.230469-.375.355469l-.03125.027344-23.898437 24.382812c-2.039063 2.03125-2.828125 5-2.066407 7.773438.761719 2.773437 2.953126 4.925781 5.742188 5.632812 2.789062.710938 5.742188-.132812 7.734375-2.207031l10.171875-10.398437v42.898437c.027344 12.285156 4.941406 24.054687 13.652344 32.714844 8.714844 8.660156 20.511718 13.503906 32.796875 13.457031h53.421875c4.417968 0 8-3.582031 8-8s-3.582032-8-8-8zm0 0"/></g></svg>