<svg height="392pt" viewBox="-106 1 392 392.593" width="392pt" xmlns="http://www.w3.org/2000/svg"><path d="m93.4375 206.9375h-26.578125l11.429687 45.730469-4.707031 7.507812h13.132813l-4.707032-7.507812zm0 0" fill="#32b1cc"/><path d="m80.148438 253.453125c-43.496094-18.863281-79.742188-2.757813-79.742188 47.539063 0 50.296874 43.496094 92.007812 57.996094 92.007812 8.890625-.304688 17.042968-5.019531 21.746094-12.574219 4.699218 7.554688 12.855468 12.269531 21.746093 12.574219 14.5 0 57.996094-41.710938 57.996094-92.007812 0-50.296876-36.246094-66.402344-79.742187-47.539063zm0 0" fill="#d9176c"/><g fill="#fdbd40"><path d="m113.371094 358.671875c-3.671875-.003906-6.644532-2.980469-6.644532-6.648437.003907-1.519532.523438-2.992188 1.476563-4.171876 7.214844-8.792968 12.636719-18.914062 15.960937-29.792968 1.019532-3.523438 4.703126-5.558594 8.230469-4.539063 3.523438 1.015625 5.558594 4.699219 4.542969 8.226563-3.820312 12.578125-10.070312 24.285156-18.394531 34.457031-1.261719 1.5625-3.164063 2.472656-5.171875 2.46875zm0 0"/><path d="m133.308594 307.636719c-3.667969 0-6.644532-2.972657-6.644532-6.644531 0-21.957032-8.054687-21.957032-13.378906-21.957032-3.671875 0-6.648437-2.976562-6.648437-6.644531 0-3.671875 2.976562-6.644531 6.648437-6.644531 17.695313 0 26.667969 11.855468 26.667969 35.25 0 3.667968-2.972656 6.640625-6.644531 6.640625zm0 0"/><path d="m80.148438 179.625c-3.671876 0-6.644532-2.972656-6.644532-6.644531v-165.398438c0-3.667969 2.972656-6.644531 6.644532-6.644531 3.667968 0 6.644531 2.976562 6.644531 6.644531v165.398438c0 3.671875-2.976563 6.644531-6.644531 6.644531zm0 0"/><path d="m53.566406 127.195312c-3.667968 0-6.644531-2.976562-6.644531-6.644531v-113.90625c0-3.667969 2.976563-6.644531 6.644531-6.644531 3.671875 0 6.644532 2.976562 6.644532 6.644531v113.90625c.003906 3.667969-2.972657 6.644531-6.644532 6.644531zm0 0"/><path d="m53.566406 167.066406c-3.667968 0-6.644531-2.976562-6.644531-6.644531v-13.289063c0-3.671874 2.976563-6.644531 6.644531-6.644531 3.671875 0 6.644532 2.972657 6.644532 6.644531v13.289063c.003906 3.667969-2.972657 6.644531-6.644532 6.644531zm0 0"/><path d="m106.726562 127.195312c-3.667968 0-6.644531-2.976562-6.644531-6.644531v-73.097656c0-3.667969 2.976563-6.644531 6.644531-6.644531 3.671876 0 6.648438 2.976562 6.648438 6.644531v73.097656c0 3.667969-2.976562 6.644531-6.648438 6.644531zm0 0"/><path d="m106.726562 167.066406c-3.667968 0-6.644531-2.976562-6.644531-6.644531v-13.289063c0-3.671874 2.976563-6.644531 6.644531-6.644531 3.671876 0 6.648438 2.972657 6.648438 6.644531v13.289063c0 3.667969-2.976562 6.644531-6.648438 6.644531zm0 0"/></g><path d="m174.609375 260.097656c-2.382813.003906-4.582031-1.269531-5.769531-3.335937-7.898438-14.285157-21.355469-24.671875-37.179688-28.691407-3.554687-.90625-5.699218-4.527343-4.789062-8.082031.910156-3.558593 4.53125-5.703125 8.085937-4.789062 19.3125 4.875 35.75 17.523437 45.410157 34.945312 1.828124 3.179688.730468 7.242188-2.453126 9.070313-1.007812.578125-2.144531.882812-3.304687.882812zm0 0" fill="#32b1cc"/><path d="m106.726562 27.519531c-3.667968 0-6.644531-2.976562-6.644531-6.644531v-13.292969c0-3.667969 2.976563-6.644531 6.644531-6.644531 3.671876 0 6.648438 2.976562 6.648438 6.644531v13.289063c0 3.671875-2.976562 6.648437-6.648438 6.648437zm0 0" fill="#fdbd40"/></svg>