<?xml version="1.0" encoding="UTF-8" standalone="no"?>
<svg
   xmlns:dc="http://purl.org/dc/elements/1.1/"
   xmlns:cc="http://creativecommons.org/ns#"
   xmlns:rdf="http://www.w3.org/1999/02/22-rdf-syntax-ns#"
   xmlns:svg="http://www.w3.org/2000/svg"
   xmlns="http://www.w3.org/2000/svg"
   xmlns:sodipodi="http://sodipodi.sourceforge.net/DTD/sodipodi-0.dtd"
   xmlns:inkscape="http://www.inkscape.org/namespaces/inkscape"
   version="1.1"
   width="24"
   height="24"
   viewBox="0 0 24 24"
   id="svg4"
   sodipodi:docname="instagram.svg"
   inkscape:version="0.92.3 (2405546, 2018-03-11)">
  <metadata
     id="metadata10">
    <rdf:RDF>
      <cc:Work
         rdf:about="">
        <dc:format>image/svg+xml</dc:format>
        <dc:type
           rdf:resource="http://purl.org/dc/dcmitype/StillImage" />
      </cc:Work>
    </rdf:RDF>
  </metadata>
  <defs
     id="defs8" />
  <sodipodi:namedview
     pagecolor="#ffffff"
     bordercolor="#666666"
     borderopacity="1"
     objecttolerance="10"
     gridtolerance="10"
     guidetolerance="10"
     inkscape:pageopacity="0"
     inkscape:pageshadow="2"
     inkscape:window-width="819"
     inkscape:window-height="480"
     id="namedview6"
     showgrid="false"
     inkscape:zoom="9.8333333"
     inkscape:cx="12"
     inkscape:cy="12"
     inkscape:window-x="0"
     inkscape:window-y="0"
     inkscape:window-maximized="0"
     inkscape:current-layer="svg4" />
  <path
     d="M7.8,2H16.2C19.4,2 22,4.6 22,7.8V16.2C22,19.4 19.4,22 16.2,22H7.8C4.6,22 2,19.4 2,16.2V7.8C2,4.6 4.6,2 7.8,2M7.6,4C5.61,4 4,5.61 4,7.6V16.4C4,18.39 5.61,20 7.6,20H16.4C18.39,20 20,18.39 20,16.4V7.6C20,5.61 18.39,4 16.4,4H7.6M17.25,5.5C17.94,5.5 18.5,6.06 18.5,6.75C18.5,7.44 17.94,8 17.25,8C16.56,8 16,7.44 16,6.75C16,6.06 16.56,5.5 17.25,5.5M12,7C14.76,7 17,9.24 17,12C17,14.76 14.76,17 12,17C9.24,17 7,14.76 7,12C7,9.24 9.24,7 12,7M12,9C10.34,9 9,10.34 9,12C9,13.66 10.34,15 12,15C13.66,15 15,13.66 15,12C15,10.34 13.66,9 12,9Z"
     id="path2"
     style="stroke:none;stroke-opacity:1;fill:rgb(191,159,37);fill-opacity:1" />
</svg>
