<?xml version="1.0" encoding="UTF-8" standalone="no"?>
<svg
   xmlns:dc="http://purl.org/dc/elements/1.1/"
   xmlns:cc="http://creativecommons.org/ns#"
   xmlns:rdf="http://www.w3.org/1999/02/22-rdf-syntax-ns#"
   xmlns:svg="http://www.w3.org/2000/svg"
   xmlns="http://www.w3.org/2000/svg"
   xmlns:sodipodi="http://sodipodi.sourceforge.net/DTD/sodipodi-0.dtd"
   xmlns:inkscape="http://www.inkscape.org/namespaces/inkscape"
   version="1.1"
   width="24"
   height="24"
   viewBox="0 0 24 24"
   id="svg4"
   sodipodi:docname="vk.svg"
   inkscape:version="0.92.3 (2405546, 2018-03-11)">
  <metadata
     id="metadata10">
    <rdf:RDF>
      <cc:Work
         rdf:about="">
        <dc:format>image/svg+xml</dc:format>
        <dc:type
           rdf:resource="http://purl.org/dc/dcmitype/StillImage" />
      </cc:Work>
    </rdf:RDF>
  </metadata>
  <defs
     id="defs8" />
  <sodipodi:namedview
     pagecolor="#ffffff"
     bordercolor="#666666"
     borderopacity="1"
     objecttolerance="10"
     gridtolerance="10"
     guidetolerance="10"
     inkscape:pageopacity="0"
     inkscape:pageshadow="2"
     inkscape:window-width="819"
     inkscape:window-height="480"
     id="namedview6"
     showgrid="false"
     inkscape:zoom="9.8333333"
     inkscape:cx="12"
     inkscape:cy="12"
     inkscape:window-x="0"
     inkscape:window-y="0"
     inkscape:window-maximized="0"
     inkscape:current-layer="svg4" />
  <path
     d="M20.8,7.74C20.93,7.32 20.8,7 20.18,7H18.16C17.64,7 17.41,7.27 17.28,7.57C17.28,7.57 16.25,10.08 14.79,11.72C14.31,12.19 14.1,12.34 13.84,12.34C13.71,12.34 13.5,12.19 13.5,11.76V7.74C13.5,7.23 13.38,7 12.95,7H9.76C9.44,7 9.25,7.24 9.25,7.47C9.25,7.95 10,8.07 10.05,9.44V12.42C10.05,13.08 9.93,13.2 9.68,13.2C9,13.2 7.32,10.67 6.33,7.79C6.13,7.23 5.94,7 5.42,7H3.39C2.82,7 2.7,7.27 2.7,7.57C2.7,8.11 3.39,10.77 5.9,14.29C7.57,16.7 9.93,18 12.08,18C13.37,18 13.53,17.71 13.53,17.21V15.39C13.53,14.82 13.65,14.7 14.06,14.7C14.36,14.7 14.87,14.85 16.07,16C17.45,17.38 17.67,18 18.45,18H20.47C21.05,18 21.34,17.71 21.18,17.14C21,16.57 20.34,15.74 19.47,14.76C19,14.21 18.29,13.61 18.07,13.3C17.77,12.92 17.86,12.75 18.07,12.4C18.07,12.4 20.54,8.93 20.8,7.74Z"
     id="path2"
     style="fill:rgb(191,159,37);fill-opacity:1" />
</svg>
