<?xml version="1.0" encoding="UTF-8" standalone="no"?>
<svg
   xmlns:dc="http://purl.org/dc/elements/1.1/"
   xmlns:cc="http://creativecommons.org/ns#"
   xmlns:rdf="http://www.w3.org/1999/02/22-rdf-syntax-ns#"
   xmlns:svg="http://www.w3.org/2000/svg"
   xmlns="http://www.w3.org/2000/svg"
   xmlns:sodipodi="http://sodipodi.sourceforge.net/DTD/sodipodi-0.dtd"
   xmlns:inkscape="http://www.inkscape.org/namespaces/inkscape"
   version="1.1"
   width="24"
   height="24"
   viewBox="0 0 24 24"
   id="svg4"
   sodipodi:docname="earth.svg"
   inkscape:version="0.92.3 (2405546, 2018-03-11)">
  <metadata
     id="metadata10">
    <rdf:RDF>
      <cc:Work
         rdf:about="">
        <dc:format>image/svg+xml</dc:format>
        <dc:type
           rdf:resource="http://purl.org/dc/dcmitype/StillImage" />
      </cc:Work>
    </rdf:RDF>
  </metadata>
  <defs
     id="defs8" />
  <sodipodi:namedview
     pagecolor="#ffffff"
     bordercolor="#666666"
     borderopacity="1"
     objecttolerance="10"
     gridtolerance="10"
     guidetolerance="10"
     inkscape:pageopacity="0"
     inkscape:pageshadow="2"
     inkscape:window-width="1024"
     inkscape:window-height="739"
     id="namedview6"
     showgrid="false"
     inkscape:zoom="9.8333333"
     inkscape:cx="12"
     inkscape:cy="12"
     inkscape:window-x="0"
     inkscape:window-y="0"
     inkscape:window-maximized="1"
     inkscape:current-layer="svg4" />
  <path
     d="M 17.9,17.39 C 17.64,16.59 16.89,16 16,16 h -1 c -0.09941,-0.933724 -0.634748,-1.576835 0,-3 0.224033,-0.502304 0.243335,-1.137287 -1,-1 -1.039945,0.645761 -2.749464,-1.720822 -6,0 -0.5200724,-0.579988 -1.0655585,-1.15574 0,-2 h 1.3898305 c 0.55,0 1.7448055,-0.7560721 1.7118645,-1.3050847 L 11,7 c 0.493632,-1.0382096 1.240504,-0.556973 2,0 0.88704,0.6505073 2,-0.9 2,-2 V 4.59 c 2.93,1.18 5,4.05 5,7.41 0,2.08 -0.8,3.97 -2.1,5.39 m -6.69661,2.33661 C 7.2533898,19.23661 4,16.08 4,12 4,11.38 4.08,10.78 4.21,10.21 5.307457,10.309038 4.414167,12.552787 9,15 v 1 c 0,1.1 1.408475,2 2.508475,2 z M 12,2 C 6.48,2 2,6.48 2,12 2,17.52 6.48,22 12,22 17.52,22 22,17.52 22,12 22,6.48 17.52,2 12,2 Z"
     id="path2"
     inkscape:connector-curvature="0"
     sodipodi:nodetypes="cscscccsscsscsccsccsccsssss"
     style="fill:#7b8f57;fill-opacity:1" />
</svg>
