<?xml version="1.0" encoding="UTF-8" standalone="no"?>
<svg
   xmlns:dc="http://purl.org/dc/elements/1.1/"
   xmlns:cc="http://creativecommons.org/ns#"
   xmlns:rdf="http://www.w3.org/1999/02/22-rdf-syntax-ns#"
   xmlns:svg="http://www.w3.org/2000/svg"
   xmlns="http://www.w3.org/2000/svg"
   xmlns:sodipodi="http://sodipodi.sourceforge.net/DTD/sodipodi-0.dtd"
   xmlns:inkscape="http://www.inkscape.org/namespaces/inkscape"
   version="1.1"
   width="24"
   height="24"
   viewBox="0 0 24 24"
   id="svg4"
   sodipodi:docname="rocket.svg"
   inkscape:version="0.92.3 (2405546, 2018-03-11)">
  <metadata
     id="metadata10">
    <rdf:RDF>
      <cc:Work
         rdf:about="">
        <dc:format>image/svg+xml</dc:format>
        <dc:type
           rdf:resource="http://purl.org/dc/dcmitype/StillImage" />
      </cc:Work>
    </rdf:RDF>
  </metadata>
  <defs
     id="defs8" />
  <sodipodi:namedview
     pagecolor="#ffffff"
     bordercolor="#666666"
     borderopacity="1"
     objecttolerance="10"
     gridtolerance="10"
     guidetolerance="10"
     inkscape:pageopacity="0"
     inkscape:pageshadow="2"
     inkscape:window-width="819"
     inkscape:window-height="480"
     id="namedview6"
     showgrid="false"
     inkscape:zoom="9.8333333"
     inkscape:cx="12"
     inkscape:cy="12"
     inkscape:window-x="0"
     inkscape:window-y="0"
     inkscape:window-maximized="0"
     inkscape:current-layer="svg4" />
  <path
     d="M2.81,14.12L5.64,11.29L8.17,10.79C11.39,6.41 17.55,4.22 19.78,4.22C19.78,6.45 17.59,12.61 13.21,15.83L12.71,18.36L9.88,21.19L9.17,17.66C7.76,17.66 7.76,17.66 7.05,16.95C6.34,16.24 6.34,16.24 6.34,14.83L2.81,14.12M5.64,16.95L7.05,18.36L4.39,21.03H2.97V19.61L5.64,16.95M4.22,15.54L5.46,15.71L3,18.16V16.74L4.22,15.54M8.29,18.54L8.46,19.78L7.26,21H5.84L8.29,18.54M13,9.5C12.17,9.5 11.5,10.17 11.5,11C11.5,11.83 12.17,12.5 13,12.5C13.83,12.5 14.5,11.83 14.5,11C14.5,10.17 13.83,9.5 13,9.5Z"
     id="path2"
     style="fill:#7b8f57;fill-opacity:1" />
</svg>
