<svg xmlns:dc="http://purl.org/dc/elements/1.1/" xmlns:cc="http://creativecommons.org/ns#" xmlns:rdf="http://www.w3.org/1999/02/22-rdf-syntax-ns#" xmlns:svg="http://www.w3.org/2000/svg" xmlns="http://www.w3.org/2000/svg" xmlns:sodipodi="http://sodipodi.sourceforge.net/DTD/sodipodi-0.dtd" xmlns:inkscape="http://www.inkscape.org/namespaces/inkscape" viewBox="0 0 52.5 51.5" enable-background="new 0 0 52.5 51.5" version="1.1" id="svg4500" sodipodi:docname="icon_viber_new.svg" inkscape:version="0.92.1 r15371"><metadata id="metadata4506"><rdf:rdf><cc:work rdf:about=""><dc:format>image/svg+xml</dc:format><dc:type rdf:resource="http://purl.org/dc/dcmitype/StillImage"></dc:type></cc:work></rdf:rdf></metadata><defs id="defs4504"></defs><sodipodi:namedview pagecolor="#ffffff" bordercolor="#666666" borderopacity="1" objecttolerance="10" gridtolerance="10" guidetolerance="10" inkscape:pageopacity="0" inkscape:pageshadow="2" inkscape:window-width="1920" inkscape:window-height="1017" id="namedview4502" showgrid="false" inkscape:zoom="11.643234" inkscape:cx="12.523617" inkscape:cy="24.462125" inkscape:window-x="-8" inkscape:window-y="-8" inkscape:window-maximized="1" inkscape:current-layer="svg4500"></sodipodi:namedview><g id="g4488" transform="matrix(0.89735236,0,0,0.89735236,2.6945005,3.2433535)"><title id="title4485">background</title><rect id="canvas_background" height="51.5" width="52.5" y="0" x="0" style="fill:none"></rect></g><g id="g4498" transform="matrix(0.89735236,0,0,0.89735236,2.6945008,3.5746654)"><g stroke="null" id="svg_1"><path stroke="null" id="svg_2" d="m 36.974497,37.974109 c 3.120405,-0.696789 7.028484,-4.453393 7.785864,-7.452617 1.272398,-5.846972 1.272398,-11.784829 0,-17.631801 -0.75738,-3.029519 -4.665459,-6.755828 -7.785864,-7.452617 -7.11937,-1.363284 -14.359921,-1.363284 -21.448995,0 -3.120405,0.696789 -7.028484,4.453393 -7.785864,7.452617 -1.272398,5.846972 -1.272398,11.754534 0,17.601506 0.787675,3.029519 4.665459,6.755828 7.785864,7.452617 0.121181,0.03029 0.242362,0.151476 0.242362,0.302952 v 8.543244 c 0,0.424133 0.515018,0.636199 0.81797,0.333247 l 4.059556,-4.150441 c 0,0 3.241585,-3.332471 3.817194,-3.90808 0.06059,-0.06059 0.121181,-0.09089 0.212066,-0.09089 4.120146,0.121181 8.209997,-0.212066 12.299847,-0.999741 z" inkscape:connector-curvature="0" style="fill:#59267c"></path><path stroke="null" id="svg_3" d="M 33.036122,34.459866 C 32.551399,34.30839 32.096971,34.217504 31.672838,34.035733 27.280035,32.218022 23.250775,29.854997 20.039485,26.280164 18.221774,24.220091 16.767604,21.917656 15.586092,19.463746 15.010483,18.312529 14.52576,17.100721 14.041037,15.888913 c -0.454428,-1.090627 0.212066,-2.211549 0.908856,-3.059814 0.666494,-0.787675 1.484464,-1.363284 2.39332,-1.817711 0.727085,-0.333247 1.393579,-0.151476 1.938892,0.454428 1.090627,1.332988 2.120663,2.696272 2.938634,4.211032 0.515018,0.908856 0.393837,2.060073 -0.545313,2.696272 -0.212066,0.121181 -0.424133,0.302952 -0.636199,0.484723 -0.181771,0.151476 -0.363542,0.302952 -0.484723,0.515018 -0.242362,0.393837 -0.242362,0.81797 -0.09089,1.211808 1.151217,3.120405 3.09011,5.574315 6.210514,6.907304 0.515018,0.212066 1.030037,0.454428 1.605645,0.393837 0.969446,-0.121181 1.302693,-1.181512 1.969187,-1.757121 0.666494,-0.545313 1.51476,-0.545313 2.241844,-0.09089 0.727085,0.454428 1.423874,0.939151 2.120663,1.454169 0.696789,0.484723 1.363284,0.969446 1.969187,1.51476 0.605904,0.545313 0.81797,1.211808 0.454428,1.938892 -0.636199,1.332988 -1.545055,2.423615 -2.847748,3.120405 -0.302952,0.212066 -0.75738,0.272657 -1.151217,0.393837 -0.484723,-0.121181 0.393837,-0.121181 0,0 v 0 z" inkscape:connector-curvature="0" style="fill:#ffffff"></path><path stroke="null" id="svg_4" d="m 27.007379,9.587514 c 0.272657,0.030295 0.515018,0.06059 0.787675,0.090886 5.029002,0.727085 8.997672,4.362508 9.936823,9.51269 0.181771,0.969446 0.242362,1.938892 0.302952,2.938634 0.03029,0.393837 -0.212066,0.787675 -0.636199,0.81797 -0.454428,0 -0.666494,-0.393837 -0.696789,-0.787675 -0.06059,-0.81797 -0.09089,-1.63594 -0.212066,-2.45391 -0.636199,-4.271622 -4.02926,-7.816159 -8.300882,-8.573539 -0.636199,-0.121181 -1.302693,-0.151476 -1.938892,-0.212066 -0.393837,-0.03029 -0.939151,-0.06059 -1.030037,-0.575609 -0.06059,-0.424133 0.272657,-0.787675 0.696789,-0.787675 0.121181,0 0.212066,0 0.333247,0 0,-0.030295 0.515018,0 0.75738,0.030295 z" inkscape:connector-curvature="0" style="fill:#ffffff"></path><path stroke="null" id="svg_5" d="m 34.975014,20.857326 c 0,0.06059 0,0.242362 -0.06059,0.393837 -0.151476,0.575609 -1.030037,0.636199 -1.211808,0.06059 -0.06059,-0.181771 -0.06059,-0.363542 -0.06059,-0.545313 0,-1.211808 -0.272657,-2.423615 -0.878561,-3.483947 -0.636199,-1.090627 -1.57535,-1.999483 -2.726567,-2.544796 -0.696789,-0.333247 -1.423874,-0.545313 -2.181254,-0.666494 -0.333247,-0.06059 -0.666494,-0.09089 -0.999741,-0.121181 -0.393837,-0.06059 -0.605904,-0.302952 -0.605904,-0.696789 0,-0.363542 0.302952,-0.636199 0.696789,-0.605904 1.302693,0.06059 2.605386,0.363542 3.756604,0.969446 2.39332,1.242103 3.756604,3.241585 4.150441,5.907562 0,0.121181 0.03029,0.242362 0.06059,0.363542 0.0303,0.272657 0.06059,0.575609 0.06059,0.969446 0,0.06059 0,-0.393837 0,0 v 0 z" inkscape:connector-curvature="0" style="fill:#ffffff"></path><path stroke="null" id="svg_6" d="m 31.400182,20.70585 c -0.484723,0 -0.75738,-0.272657 -0.787675,-0.696789 -0.0303,-0.302952 -0.06059,-0.605904 -0.121181,-0.908856 -0.151476,-0.575609 -0.454428,-1.151217 -0.939151,-1.51476 -0.242362,-0.181771 -0.484723,-0.302952 -0.787675,-0.393837 -0.333247,-0.09089 -0.727085,-0.06059 -1.060332,-0.151476 -0.393837,-0.09089 -0.605904,-0.393837 -0.545313,-0.75738 0.06059,-0.333247 0.393837,-0.575609 0.727085,-0.545313 2.241844,0.151476 3.817194,1.302693 4.059556,3.938375 0,0.181771 0.0303,0.393837 0,0.545313 -0.09089,0.333247 -0.333247,0.484723 -0.545313,0.484723 -0.484723,0.03029 0.212066,0 0,0 v 0 z" inkscape:connector-curvature="0" style="fill:#ffffff"></path></g></g></svg>
