<svg height="436pt" viewBox="-44 0 436 436.91572" width="436pt" xmlns="http://www.w3.org/2000/svg"><path d="m213.148438 348.171875c-4.328126 0-8.640626-.949219-12.574219-2.867187-3.386719-1.652344-4.796875-5.742188-3.140625-9.128907 1.648437-3.390625 5.726562-4.808593 9.128906-3.144531 4.699219 2.300781 10.738281 1.875 15.371094-1.078125 2.617187-1.660156 6.980468-5.578125 6.855468-13.128906-.175781-10.699219 5.25-20.285157 14.523438-25.636719 9.269531-5.347656 20.28125-5.261719 29.457031.25 7.605469 4.554688 14.699219 1.789062 18.804688-2.320312 4.109375-4.105469 6.875-11.203126 2.320312-18.804688-5.507812-9.175781-5.597656-20.191406-.246093-29.460938 5.351562-9.269531 15.042968-14.691406 25.632812-14.519531 9.003906.316407 13.625-5.796875 15.128906-11.410156 1.503906-5.609375.347656-13.136719-7.394531-17.441406-9.355469-5.195313-14.945313-14.6875-14.945313-25.394531 0-10.699219 5.585938-20.195313 14.941407-25.390626 7.746093-4.304687 8.902343-11.832031 7.398437-17.441406-1.503906-5.613281-6.40625-11.839844-15.128906-11.410156-10.789062.253906-20.28125-5.253906-25.632812-14.519531-5.351563-9.273438-5.261719-20.285157.246093-29.460938 4.554688-7.601562 1.789063-14.699219-2.320312-18.804687-4.105469-4.109375-11.199219-6.878906-18.804688-2.320313-9.175781 5.507813-20.1875 5.59375-29.457031.246094-9.273438-5.351563-14.699219-14.933594-14.523438-25.632813.148438-8.859374-5.792968-13.625-11.410156-15.128906-5.613281-1.496094-13.136718-.34375-17.441406 7.394532-5.195312 9.355468-14.6875 14.945312-25.390625 14.945312-10.707031 0-20.199219-5.585938-25.394531-14.941406-4.300782-7.742188-11.835938-8.890625-17.441406-7.398438-5.613282 1.503906-11.554688 6.269532-11.410157 15.128906.175781 10.699219-5.25 20.28125-14.519531 25.632813-9.269531 5.347656-20.285156 5.261719-29.460938-.246094-7.601562-4.558593-14.699218-1.789062-18.804687 2.320313-4.109375 4.105468-6.871094 11.203125-2.320313 18.804687 5.507813 9.175781 5.597657 20.1875.25 29.460938-5.351562 9.269531-14.800781 14.734375-25.636718 14.519531-8.96875-.269531-13.621094 5.800781-15.125 11.410156s-.351563 13.136719 7.390625 17.441406c9.355469 5.195313 14.945312 14.6875 14.945312 25.390626 0 10.703124-5.585937 20.199218-14.941406 25.394531-7.746094 4.304687-8.898437 11.832031-7.394531 17.441406s6.332031 11.488281 15.125 11.410156c10.820312-.105469 20.285156 5.25 25.636718 14.519531 5.347657 9.269532 5.257813 20.285157-.25 29.460938-4.550781 7.601562-1.789062 14.695312 2.320313 18.804688 4.101563 4.109374 11.203125 6.875 18.804687 2.320312 9.175782-5.511719 20.191407-5.597656 29.460938-.25 9.269531 5.355469 14.695312 14.9375 14.519531 25.636719-.121093 7.335937 4.03125 11.242187 6.519531 12.914062 4.492188 3.023438 10.265626 3.640625 15.050782 1.597657 3.460937-1.484376 7.476562.132812 8.957031 3.601562 1.472656 3.464844-.136719 7.476562-3.605469 8.957031-8.988281 3.832031-19.730468 2.75-28.023437-2.832031-8.140625-5.476562-12.714844-14.390625-12.550781-24.464844.097656-5.667968-2.78125-10.75-7.695313-13.582031-4.910156-2.835937-10.75-2.789063-15.613281.125-11.632813 6.980469-25.886719 5.214844-35.476563-4.371094-9.589843-9.589843-11.347656-23.851562-4.371093-35.480469 2.914062-4.863281 2.960937-10.699218.125-15.613281-2.832032-4.910156-7.902344-7.878906-13.582032-7.691406-13.609375.101563-25.035156-8.429687-28.542968-21.53125-3.511719-13.097656 2.097656-26.324219 13.949218-32.90625 4.960938-2.753906 7.921875-7.785156 7.921875-13.460937 0-5.671876-2.957031-10.699219-7.921875-13.460938-11.851562-6.582031-17.457031-19.804688-13.949218-32.90625 3.507812-13.097656 14.792968-21.945312 28.542968-21.527344 5.585938.09375 10.75-2.785156 13.582032-7.695312 2.835937-4.914063 2.789062-10.75-.125-15.609375-6.976563-11.632813-5.222657-25.890625 4.371093-35.480469 9.582031-9.589844 23.84375-11.351562 35.476563-4.371094 4.867187 2.914063 10.703125 2.960938 15.613281.125 4.914063-2.832031 7.789063-7.914062 7.695313-13.582031-.222657-13.5625 8.429687-25.03125 21.527343-28.542969 13.105469-3.511718 26.324219 2.097656 32.90625 13.953125 2.757813 4.957031 7.789063 7.917969 13.460938 7.917969 5.675781 0 10.703125-2.957031 13.460937-7.917969 6.585938-11.851562 19.816406-17.449219 32.90625-13.953125 13.101563 3.511719 21.753906 14.976563 21.53125 28.542969-.097656 5.667969 2.777344 10.75 7.691406 13.582031 4.90625 2.835938 10.746094 2.789063 15.613282-.125 11.628906-6.980468 25.886718-5.214844 35.480468 4.371094 9.589844 9.589844 11.347657 23.847656 4.371094 35.480469-2.917968 4.863281-2.964844 10.699219-.125 15.609375 2.835938 4.914062 7.925782 7.910156 13.582032 7.695312 13.398437-.265625 25.03125 8.429688 28.539062 21.527344 3.511719 13.101562-2.097656 26.324219-13.949219 32.90625-4.960937 2.757812-7.921875 7.789062-7.921875 13.460938 0 5.675781 2.960938 10.703124 7.921875 13.460937 11.851563 6.582031 17.460938 19.808594 13.949219 32.90625-3.507812 13.097656-14.828125 21.714844-28.539062 21.53125-5.582032-.226563-10.75 2.78125-13.582032 7.691406-2.839844 4.914063-2.792968 10.75.125 15.613281 6.976563 11.628907 5.21875 25.890626-4.371094 35.480469-9.589843 9.585938-23.855468 11.347657-35.480468 4.371094-4.867188-2.914063-10.707032-2.960937-15.613282-.125-4.914062 2.832031-7.789062 7.914063-7.691406 13.582031.167969 10.375-4.636718 19.441406-13.183594 24.875-4.890624 3.117188-10.515624 4.699219-16.109374 4.699219zm0 0"/><path d="m331.558594 436.914062h-314.027344c-3.769531 0-6.824219-3.054687-6.824219-6.824218v-44.457032c0-31.953124 29.816407-57.945312 66.460938-57.945312h66.464843c3.773438 0 6.828126 3.058594 6.828126 6.828125s-3.054688 6.828125-6.828126 6.828125h-66.464843c-29.117188 0-52.808594 19.867188-52.808594 44.289062v37.628907h300.371094v-43.480469c0-21.195312-20.625-38.4375-45.980469-38.4375h-74.929688c-3.769531 0-6.828124-3.058594-6.828124-6.828125s3.058593-6.828125 6.828124-6.828125h74.929688c32.882812 0 59.636719 23.371094 59.636719 52.09375v50.308594c0 3.769531-3.058594 6.824218-6.828125 6.824218zm0 0"/><path d="m279.847656 204.65625c-3.449218 0-6.410156-2.601562-6.78125-6.105469-.398437-3.75 2.316406-7.113281 6.070313-7.511719 10.425781-1.101562 18.289062-9.859374 18.289062-20.363281 0-10.953125-8.5625-19.941406-19.492187-20.457031-3.765625-.179688-6.671875-3.375-6.496094-7.144531.179688-3.765625 3.503906-6.515625 7.144531-6.496094 18.222657.867187 32.496094 15.84375 32.496094 34.097656 0 17.507813-13.113281 32.101563-30.503906 33.945313-.242188.019531-.484375.035156-.726563.035156zm0 0"/><path d="m69.269531 204.660156c-.238281 0-.476562-.015625-.722656-.039062-17.40625-1.824219-30.535156-16.417969-30.535156-33.945313 0-17.28125 12.921875-31.851562 30.058593-33.894531 3.707032-.40625 7.144532 2.230469 7.585938 5.976562.445312 3.742188-2.230469 7.140626-5.972656 7.585938-10.269532 1.222656-18.019532 9.960938-18.019532 20.332031 0 10.515625 7.871094 19.273438 18.3125 20.367188 3.75.394531 6.46875 3.753906 6.078126 7.503906-.371094 3.507813-3.332032 6.113281-6.785157 6.113281zm0 0"/><path d="m174.546875 389.128906c-18.820313 0-34.132813-15.3125-34.132813-34.132812v-40.960938c0-3.769531 3.054688-6.824218 6.824219-6.824218s6.828125 3.054687 6.828125 6.824218v40.960938c0 11.292968 9.1875 20.480468 20.480469 20.480468s20.480469-9.1875 20.480469-20.480468v-40.960938c0-3.769531 3.054687-6.824218 6.824218-6.824218 3.769532 0 6.828126 3.054687 6.828126 6.824218v40.960938c0 18.820312-15.316407 34.132812-34.132813 34.132812zm0 0"/><path d="m174.546875 320.863281c-60.226563 0-109.226563-49-109.226563-109.226562v-72.40625c0-13.382813 7.277344-25.726563 18.992188-32.222657 3.304688-1.835937 7.453125-.640624 9.28125 2.660157 1.828125 3.296875.636719 7.453125-2.660156 9.28125-7.378906 4.089843-11.960938 11.863281-11.960938 20.28125v72.40625c0 52.699219 42.871094 95.574219 95.574219 95.574219 52.699219 0 95.570313-42.875 95.570313-95.574219v-72.40625c0-12.773438-10.390626-23.167969-23.167969-23.167969h-79.230469c-3.769531 0-6.828125-3.058594-6.828125-6.828125s3.058594-6.824219 6.828125-6.824219h79.230469c20.300781 0 36.824219 16.519532 36.824219 36.820313v72.40625c0 60.226562-49 109.226562-109.226563 109.226562zm0 0"/><path d="m127.5625 144.46875c-25.710938-3.671875-48.449219 6.613281-50.785156 22.976562-2.339844 16.359376 16.609375 32.601563 42.320312 36.273438 25.714844 3.675781 48.453125-6.613281 50.789063-22.972656 2.335937-16.363282-16.613281-32.605469-42.324219-36.277344zm0 0"/><path d="m272.28125 167.433594c-2.335938-16.359375-25.074219-26.648438-50.789062-22.972656-25.710938 3.671874-44.660157 19.914062-42.320313 36.273437 2.335937 16.363281 25.074219 26.648437 50.785156 22.976563 25.710938-3.671876 44.660157-19.914063 42.324219-36.277344zm0 0"/><path d="m181.371094 259.421875h-13.652344c-7.539062 0-13.652344-6.113281-13.652344-13.652344 0-7.539062 6.113282-13.652343 13.652344-13.652343h13.652344c7.542968 0 13.65625 6.113281 13.65625 13.652343 0 7.539063-6.113282 13.652344-13.65625 13.652344zm0 0"/><path d="m201.851562 245.769531h-54.613281c-3.769531 0-6.824219-3.058593-6.824219-6.828125 0-3.769531 3.054688-6.824218 6.824219-6.824218h54.613281c3.769532 0 6.828126 3.054687 6.828126 6.824218 0 3.769532-3.058594 6.828125-6.828126 6.828125zm0 0"/><path d="m65.320312 436.914062h-47.789062c-3.769531 0-6.824219-3.054687-6.824219-6.824218v-27.308594c0-3.769531 3.054688-6.824219 6.824219-6.824219h20.480469c18.820312 0 34.132812 15.3125 34.132812 34.132813 0 3.769531-3.054687 6.824218-6.824219 6.824218zm-40.960937-13.652343h32.960937c-2.816406-7.945313-10.410156-13.652344-19.308593-13.652344h-13.652344zm0 0"/><path d="m331.558594 436.914062h-47.785156c-3.769532 0-6.828126-3.054687-6.828126-6.824218 0-18.820313 15.3125-34.132813 34.132813-34.132813h20.480469c3.769531 0 6.828125 3.054688 6.828125 6.824219v27.308594c0 3.769531-3.058594 6.824218-6.828125 6.824218zm-39.789063-13.652343h32.960938v-13.652344h-13.652344c-8.898437 0-16.492187 5.707031-19.308594 13.652344zm0 0"/><path d="m229.160156 351.582031c0 5.65625-4.585937 10.242188-10.242187 10.242188s-10.238281-4.585938-10.238281-10.242188 4.582031-10.238281 10.238281-10.238281 10.242187 4.582031 10.242187 10.238281zm0 0"/><path d="m140.414062 351.582031c0 5.65625-4.585937 10.242188-10.242187 10.242188s-10.238281-4.585938-10.238281-10.242188 4.582031-10.238281 10.238281-10.238281 10.242187 4.582031 10.242187 10.238281zm0 0"/><path d="m222.332031 378.890625c0 5.652344-4.585937 10.238281-10.238281 10.238281-5.65625 0-10.242188-4.585937-10.242188-10.238281 0-5.65625 4.585938-10.242187 10.242188-10.242187 5.652344 0 10.238281 4.585937 10.238281 10.242187zm0 0"/><path d="m147.238281 378.890625c0 5.652344-4.582031 10.238281-10.238281 10.238281s-10.242188-4.585937-10.242188-10.238281c0-5.65625 4.585938-10.242187 10.242188-10.242187s10.238281 4.585937 10.238281 10.242187zm0 0"/><path d="m188.199219 395.957031c0 7.539063-6.113281 13.652344-13.652344 13.652344-7.542969 0-13.65625-6.113281-13.65625-13.652344 0-7.542969 6.113281-13.65625 13.65625-13.65625 7.539063 0 13.652344 6.113281 13.652344 13.65625zm0 0"/><path d="m126.757812 143.367188c-26.347656 0-47.785156-21.4375-47.785156-47.785157 0-8.839843 2.433594-17.472656 7.035156-24.96875 1.96875-3.210937 6.167969-4.230469 9.390626-2.242187 3.214843 1.972656 4.21875 6.175781 2.242187 9.386718-3.28125 5.34375-5.015625 11.507813-5.015625 17.824219 0 18.820313 15.316406 34.132813 34.132812 34.132813 18.820313 0 34.132813-15.3125 34.132813-34.132813 0-3.769531 3.058594-6.828125 6.828125-6.828125s6.828125 3.058594 6.828125 6.828125c0 26.347657-21.4375 47.785157-47.789063 47.785157zm0 0"/><path d="m208.679688 177.503906h-54.613282c-3.769531 0-6.828125-3.058594-6.828125-6.828125s3.058594-6.828125 6.828125-6.828125h54.613282c3.769531 0 6.824218 3.058594 6.824218 6.828125s-3.054687 6.828125-6.824218 6.828125zm0 0"/></svg>