<svg height="511pt" viewBox="-20 1 511 511.99974" width="511pt" xmlns="http://www.w3.org/2000/svg"><path d="m188.089844 377.269531-70.402344-.144531s-14.339844 13.789062-24.457031 36.175781c-2.621094 5.800781.15625 12.609375 6.039062 15.046875 12.617188 5.222656 33.167969 15.789063 41.363281 31.683594l52-17.8125v-34.15625zm0 0" fill="#9a77af"/><path d="m284.824219 377.269531 70.402343-.144531s14.339844 13.789062 24.457032 36.175781c2.621094 5.800781-.160156 12.609375-6.039063 15.046875-12.617187 5.222656-33.171875 15.789063-41.367187 31.683594l-51.996094-17.8125v-34.15625zm0 0" fill="#9a77af"/><path d="m192.628906 408.066406h-13.066406c-17.300781 12.914063-30.6875 32.167969-38.929688 51.96875-6.84375 16.429688-10.207031 34.183594-10.207031 51.964844h62.203125l43.828125-51.964844zm0 0" fill="#ac84c4"/><path d="m280.285156 408.066406h13.066406c17.296876 12.914063 30.6875 32.167969 38.929688 51.96875 6.84375 16.429688 10.207031 34.183594 10.207031 51.964844h-62.203125l-43.828125-51.964844zm0 0" fill="#ac84c4"/><path d="m192.628906 408.066406h87.65625v103.933594h-87.65625zm0 0" fill="#f5cdb6"/><path d="m448.375 3.875c-8.707031-5.167969-19.546875-5.167969-28.253906 0-8.710938 5.167969-19.546875 5.167969-28.257813 0-8.707031-5.167969-19.546875-5.167969-28.253906 0-8.710937 5.167969-19.546875 5.167969-28.257813 0-8.707031-5.167969-19.546874-5.167969-28.253906 0-8.710937 5.167969-19.546875 5.167969-28.257812 0-8.707032-5.167969-19.546875-5.167969-28.253906 0-8.710938 5.167969-19.546876 5.167969-28.257813 0-8.707031-5.167969-19.546875-5.167969-28.253906 0-8.710938 5.167969-19.546875 5.167969-28.257813 0-8.707031-5.167969-19.546875-5.167969-28.253906 0-8.710938 5.167969-19.546875 5.167969-28.257812 0-8.707032-5.167969-19.546876-5.167969-28.253907 0-8.710937 5.167969-19.546875 5.167969-28.257812 0-8.707031-5.167969-19.546875-5.167969-28.253907 0-8.757812 5.199219-14.128906 19.773438-14.128906 29.957031v198.863281h452.09375v-198.863281c0-10.183593-5.371094-24.757812-14.128906-29.957031zm0 0" fill="#ea8187"/><path d="m54.253906 4.679688c-.492187-.253907-.980468-.519532-1.460937-.804688-8.707031-5.167969-19.546875-5.167969-28.253907 0-8.757812 5.199219-14.128906 19.773438-14.128906 29.957031v198.863281h30.90625v-198.863281c0-9.710937 4.890625-23.398437 12.9375-29.152343zm0 0" fill="#d3737b"/><path d="m472.414062 242.714844c0 21.804687-17.675781 39.480468-39.480468 39.480468-21.804688 0-39.480469-17.675781-39.480469-39.480468 0-21.804688 17.675781-39.480469 39.480469-39.480469 21.804687 0 39.480468 17.675781 39.480468 39.480469zm0 0" fill="#e2b3a3"/><path d="m431.707031 196.792969c-5.144531-37.90625-29.714843-70.726563-65.289062-84.796875-35.472657-14.03125-80.582031-9.671875-123.632813 29.671875-3.585937 3.273437-9.070312 3.273437-12.65625 0-43.050781-39.34375-88.160156-43.703125-123.628906-29.675781-35.578125 14.070312-60.148438 46.890624-65.292969 84.800781-1.148437 8.453125-1.742187 17.074219-1.742187 25.835937 0 106.945313 88.195312 193.644532 196.992187 193.644532s196.992188-86.699219 196.992188-193.644532c0-8.761718-.59375-17.382812-1.742188-25.835937zm0 0" fill="#f5cdb6"/><path d="m70.371094 222.628906c0-8.761718.59375-17.382812 1.738281-25.835937 5.148437-37.910157 29.71875-70.726563 65.292969-84.800781 7.191406-2.839844 14.78125-4.914063 22.664062-6.109376-19.125-2.855468-37.355468-.300781-53.566406 6.109376-35.578125 14.070312-60.148438 46.890624-65.292969 84.800781-.292969 2.140625-.546875 4.292969-.765625 6.453125-.15625 0-.304687-.011719-.460937-.011719-21.804688 0-39.480469 17.675781-39.480469 39.480469 0 21.804687 17.675781 39.480468 39.480469 39.480468 3.203125 0 6.0625-.394531 8.628906-1.113281 25.214844 78.375 99.777344 135.191407 187.847656 135.191407 5.199219 0 10.351563-.203126 15.453125-.589844-101.574218-7.75-181.539062-91.222656-181.539062-193.054688zm0 0" fill="#e2b3a3"/><path d="m401.242188 219.539062c3.148437-3.066406 1.410156-8.410156-2.9375-9.042968l-40.824219-5.929688c-1.726563-.25-3.21875-1.335937-3.992188-2.902344l-18.257812-36.992187c-1.945313-3.941406-7.5625-3.941406-9.507813 0l-18.257812 36.992187c-.773438 1.566407-2.265625 2.652344-3.992188 2.902344l-40.824218 5.929688c-4.351563.632812-6.085938 5.976562-2.941407 9.042968l29.542969 28.796876c1.25 1.21875 1.820312 2.972656 1.523438 4.691406l-6.972657 40.660156c-.742187 4.332031 3.804688 7.632812 7.691407 5.589844l36.515624-19.199219c1.546876-.8125 3.390626-.8125 4.9375 0l36.511719 19.199219c3.890625 2.042968 8.4375-1.257813 7.695313-5.589844l-6.976563-40.660156c-.292969-1.71875.277344-3.472656 1.527344-4.691406zm0 0" fill="#ac84c4"/><g fill="#394048"><path d="m329.511719 249.46875c-4.265625 0-7.726563-3.460938-7.726563-7.726562v-18.09375c0-4.265626 3.460938-7.726563 7.726563-7.726563s7.726562 3.460937 7.726562 7.726563v18.09375c0 4.265624-3.460937 7.726562-7.726562 7.726562zm0 0"/><path d="m143.402344 249.46875c-4.269532 0-7.726563-3.460938-7.726563-7.726562v-18.09375c0-4.265626 3.457031-7.726563 7.726563-7.726563 4.265625 0 7.726562 3.460937 7.726562 7.726563v18.09375c0 4.265624-3.460937 7.726562-7.726562 7.726562zm0 0"/><path d="m236.457031 275.039062c-8.714843 0-16.902343-3.644531-22.460937-10.003906-2.808594-3.210937-2.480469-8.09375.730468-10.902344 3.214844-2.808593 8.09375-2.480468 10.902344.734376 2.625 3 6.570313 4.71875 10.828125 4.71875 4.257813 0 8.203125-1.71875 10.824219-4.71875 2.808594-3.214844 7.691406-3.542969 10.902344-.734376 3.214844 2.808594 3.542968 7.691407.734375 10.902344-5.558594 6.359375-13.746094 10.003906-22.460938 10.003906zm0 0"/></g></svg>