<?xml version="1.0" standalone="no"?><!-- Generator: Gravit.io --><svg xmlns="http://www.w3.org/2000/svg" xmlns:xlink="http://www.w3.org/1999/xlink" style="isolation:isolate" viewBox="0 0 512 290" width="512" height="290"><defs><clipPath id="_clipPath_oGOhBMaeumOcQtRtyOaIAXpife6SCTsr"><rect width="512" height="290"/></clipPath></defs><g clip-path="url(#_clipPath_oGOhBMaeumOcQtRtyOaIAXpife6SCTsr)"><g><g><path d=" M 112 128 L 96 128 L 96 96 L 112 96 C 120.832 96 128 88.832 128 80 C 128 71.168 120.832 64 112 64 L 80 64 C 71.168 64 64 71.168 64 80 L 64 208 C 64 216.832 71.168 224 80 224 C 88.832 224 96 216.832 96 208 L 96 160 L 112 160 C 120.832 160 128 152.832 128 144 C 128 135.168 120.832 128 112 128 Z " fill="rgb(255,0,0)"/></g></g><g><g><path d=" M 336 160 C 344.832 160 352 152.832 352 144 C 352 135.168 344.832 128 336 128 L 320 128 L 320 96 L 336 96 C 344.832 96 352 88.832 352 80 C 352 71.168 344.832 64 336 64 L 304 64 C 295.168 64 288 71.168 288 80 L 288 208 C 288 216.832 295.168 224 304 224 L 336 224 C 344.832 224 352 216.832 352 208 C 352 199.168 344.832 192 336 192 L 320 192 L 320 160 L 336 160 Z " fill="rgb(255,0,0)"/></g></g><g><g><path d=" M 432 160 C 440.832 160 448 152.832 448 144 C 448 135.168 440.832 128 432 128 L 416 128 L 416 96 L 432 96 C 440.832 96 448 88.832 448 80 C 448 71.168 440.832 64 432 64 L 400 64 C 391.168 64 384 71.168 384 80 L 384 208 C 384 216.832 391.168 224 400 224 L 432 224 C 440.832 224 448 216.832 448 208 C 448 199.168 440.832 192 432 192 L 416 192 L 416 160 L 432 160 Z " fill="rgb(255,0,0)"/></g></g><g><g><path d=" M 222.176 157.6 C 241.696 151.52 256 133.504 256 112 C 256 85.536 234.464 64 208 64 L 176 64 C 167.168 64 160 71.168 160 80 L 160 208 C 160 216.832 167.168 224 176 224 C 184.832 224 192 216.832 192 208 L 192 170.656 L 227.2 217.6 C 230.336 221.792 235.136 224 240 224 C 243.328 224 246.688 222.944 249.568 220.8 C 256.64 215.488 258.08 205.472 252.768 198.4 L 222.176 157.6 Z  M 208 128 L 192 128 L 192 96 L 208 96 C 216.832 96 224 103.168 224 112 C 224 120.832 216.832 128 208 128 Z " fill="rgb(255,0,0)"/></g></g><g><g><path d=" M 496 0 L 397.184 0 L 114.816 0 L 16 0 C 7.168 0 0 7.168 0 16 L 0 272 C 0 280.832 7.168 288 16 288 L 496 288 C 504.832 288 512 280.832 512 272 L 512 16 C 512 7.168 504.832 0 496 0 Z  M 114.816 0 M 480 256 L 32 256 L 32 32 L 480 32 L 480 256 Z " fill="rgb(255,0,0)"/></g></g></g></svg>