<?xml version="1.0" encoding="iso-8859-1"?>
<!-- Generator: Adobe Illustrator 19.0.0, SVG Export Plug-In . SVG Version: 6.00 Build 0)  -->
<svg version="1.1" id="Capa_1" xmlns="http://www.w3.org/2000/svg" xmlns:xlink="http://www.w3.org/1999/xlink" x="0px" y="0px"
	 viewBox="0 0 512 512" style="enable-background:new 0 0 512 512;" xml:space="preserve">
<polygon style="fill:#E5E9EA;" points="111.805,465.968 158.326,45.659 445.01,45.659 445.01,465.968 "/>
<path id="SVGCleanerId_0" style="fill:#E5E9EA;" d="M66.986,466.349c0-0.397,0-0.784,0.01-1.181v1.17L66.986,466.349z"/>
<path style="fill:#F4F4F4;" d="M158.321,45.662v420.687c0-25.234-20.438-45.673-45.662-45.673
	c-24.816,0-45.035,19.801-45.662,44.492V45.662h-0.01C66.986,20.449,87.446,0,112.659,0C137.883,0,158.321,20.449,158.321,45.662z"
	/>
<g>
	<path style="fill:#D1D1D1;" d="M112.659,0v420.677c-24.816,0-45.035,19.801-45.662,44.492V45.662h-0.01
		C66.986,20.449,87.446,0,112.659,0z"/>
	<path style="fill:#D1D1D1;" d="M445.014,465.972l-2.79,6.604l-1.912,4.524l-3.051,7.199l-1.672,3.95l-0.24,0.575l-1.526,3.605
		l-3.187,7.544l-1.766,4.18L425.547,512H112.662c-25.213,0-45.673-20.438-45.673-45.652c0-25.224,20.459-45.673,45.673-45.673
		c25.224,0,45.662,20.449,45.662,45.673L445.014,465.972z"/>
</g>
<path style="fill:#B2B2B2;" d="M146.287,466.34v33.63h-33.63c-18.58,0-33.63-15.05-33.63-33.63c0-18.566,15.05-33.63,33.63-33.63
	C131.223,432.71,146.287,447.774,146.287,466.34z"/>
<g>
	<path id="SVGCleanerId_0_1_" style="fill:#E5E9EA;" d="M66.986,466.349c0-0.397,0-0.784,0.01-1.181v1.17L66.986,466.349z"/>
</g>
<g>
	<polygon style="fill:#B2B2B2;" points="433.823,492.43 430.636,499.973 428.87,504.153 161.26,504.153 161.26,492.43 	"/>
	<polygon style="fill:#B2B2B2;" points="442.224,472.577 440.311,477.101 437.26,484.3 172.41,484.3 172.41,472.577 	"/>
</g>
<rect x="195.156" y="86.162" style="fill:#53BCE9;" width="209.377" height="339.3"/>
<path style="fill:#FCB65F;" d="M404.529,388.411v37.052H281.983c-0.449-8.6,0.69-17.168,2.696-25.255
	c6.687-26.979,23.124-48.651,23.124-48.651c1.432-18.798,7.126-37.71,12.173-48.442c-15.329-20.323-10.804-51.472-21.974-62.642
	c-9.676-9.686-37.794,1.797-58.055,3.803c-7.92,0.784-14.629,0.125-18.557-3.803c-14.012-14.012,9.321-35.203,24.848-50.74
	c17.084-17.074,59.016-50.73,86.967-11.389c27.951,39.351,47.627,11.389,52.799,48.661c5.183,37.272-26.917,70.405-14.493,116.997
	C377.873,367.879,392.136,381.149,404.529,388.411z"/>
<path style="fill:#FFFFFF;" d="M273.993,322.955c-23.616-5.487-41.216-26.66-41.216-51.943c0-9.743,2.609-18.874,7.175-26.733
	c20.251-2.008,48.371-13.491,58.052-3.81c11.171,11.171,6.647,42.325,21.97,62.648c-5.042,10.726-10.736,29.642-12.165,48.444
	c0,0-16.441,21.669-23.129,48.651c-44.375-9.028-40.233-30.615-40.233-30.615C259.343,349.542,273.993,331.714,273.993,322.955z"/>
<path style="fill:#FA3F68;" d="M281.983,425.463h-68.169c2.873-16.917,16.854-37.334,30.626-55.85
	c-0.136,0.825-3.26,21.744,40.239,30.595C282.673,408.296,281.534,416.864,281.983,425.463z"/>
<g>
	<path style="fill:#E5E9EA;" d="M368.014,131.024h-13.583c-4.329,0-7.837-3.509-7.837-7.837s3.508-7.837,7.837-7.837h13.583
		c4.329,0,7.837,3.509,7.837,7.837S372.342,131.024,368.014,131.024z"/>
	<path style="fill:#E5E9EA;" d="M328.307,131.024H225.907c-4.329,0-7.837-3.509-7.837-7.837s3.508-7.837,7.837-7.837h102.399
		c4.329,0,7.837,3.509,7.837,7.837S332.635,131.024,328.307,131.024z"/>
</g>
<g>
	<path style="fill:#435054;" d="M278.214,276.937c-9.457,0-13.927-3.325-14.89-4.15c-0.036-0.03-0.07-0.061-0.106-0.092
		l-0.527-0.474c-2.359-2.123-2.55-5.757-0.426-8.117c2.123-2.358,5.758-2.551,8.117-0.426l0.294,0.264
		c0.624,0.372,4.81,2.558,14.282,0.84c3.122-0.566,6.115,1.506,6.681,4.629c0.566,3.123-1.506,6.115-4.63,6.681
		C283.695,276.694,280.771,276.937,278.214,276.937z M270.791,264.046l0.118,0.107c0.015,0.014,0.022,0.019,0.022,0.019
		C270.933,264.172,270.767,264.019,270.791,264.046z M270.804,264.061L270.804,264.061L270.804,264.061z M270.593,263.891
		L270.593,263.891L270.593,263.891z"/>
	<path style="fill:#435054;" d="M235.058,276.85c-9.457,0-13.927-3.325-14.89-4.15c-0.036-0.03-0.07-0.061-0.106-0.092l-0.527-0.474
		c-2.359-2.123-2.55-5.757-0.426-8.117c2.123-2.358,5.758-2.551,8.117-0.426l0.294,0.264c0.624,0.372,4.81,2.558,14.282,0.84
		c3.116-0.567,6.114,1.506,6.681,4.629c0.566,3.123-1.506,6.115-4.63,6.681C240.538,276.607,237.616,276.85,235.058,276.85z
		 M227.635,263.96l0.118,0.107c0.015,0.014,0.022,0.019,0.022,0.019C227.777,264.084,227.61,263.93,227.635,263.96z
		 M227.648,263.974L227.648,263.974L227.648,263.974z M227.436,263.804L227.436,263.804L227.436,263.804z"/>
</g>
<g>
</g>
<g>
</g>
<g>
</g>
<g>
</g>
<g>
</g>
<g>
</g>
<g>
</g>
<g>
</g>
<g>
</g>
<g>
</g>
<g>
</g>
<g>
</g>
<g>
</g>
<g>
</g>
<g>
</g>
</svg>
