<?xml version="1.0" standalone="no"?><!-- Generator: Gravit.io --><svg xmlns="http://www.w3.org/2000/svg" xmlns:xlink="http://www.w3.org/1999/xlink" style="isolation:isolate" viewBox="0 0 250 250" width="250" height="250"><defs><clipPath id="_clipPath_dn3wTpaz8x1uLQOAFDskwe4ienLOjInA"><rect width="250" height="250"/></clipPath></defs><g clip-path="url(#_clipPath_dn3wTpaz8x1uLQOAFDskwe4ienLOjInA)"><clipPath id="_clipPath_akxgBRNgkeI37PYd1vJJT8N0jMX30ujt"><path d=" M -32 -28 L -32 572 L 568 572 L 568 -28 L -32 -28 Z " fill="rgb(255,255,255)"/></clipPath><g clip-path="url(#_clipPath_akxgBRNgkeI37PYd1vJJT8N0jMX30ujt)"><path d=" M 241.431 131.349 C 241.431 66.707 188.981 14.254 124.337 14.254 C 59.693 14.254 7.241 66.707 7.241 131.349 C 7.241 195.991 59.693 248.445 124.337 248.445 C 188.981 248.445 241.431 195.991 241.431 131.349 L 241.431 131.349 Z " fill-rule="evenodd" fill="rgb(154,209,168)"/></g><clipPath id="_clipPath_We6tn01jH5rIsxj9omT3vVF5Mqr4NU27"><path d=" M -32 -28 L -32 572 L 568 572 L 568 -28 L -32 -28 Z " fill="rgb(255,255,255)"/></clipPath><g clip-path="url(#_clipPath_We6tn01jH5rIsxj9omT3vVF5Mqr4NU27)"><path d=" M 73.253 184.94 C 80.683 172.362 92.549 157.645 80.544 135.494 C 62.964 58.185 144.274 42.61 156.568 74.477 C 176.57 82.049 176.141 123.492 165.853 145.355 C 165.281 154.215 155.995 162.075 172.858 185.082 L 174 184.94 L 174 184.94 C 152.278 191.226 96.26 188.225 73.253 184.94 L 73.253 184.94 Z " fill-rule="evenodd" fill="rgb(54,53,53)"/></g><clipPath id="_clipPath_IsvzvrGazT8m0PcltIOBTNeER8Vd4uSE"><path d=" M -32 -28 L -32 572 L 568 572 L 568 -28 L -32 -28 Z " fill="rgb(255,255,255)"/></clipPath><g clip-path="url(#_clipPath_IsvzvrGazT8m0PcltIOBTNeER8Vd4uSE)"><path d=" M 107.63 157.369 C 107.221 164.082 105.71 168.601 103.795 172.435 C 101.195 177.501 97.769 181.063 93.25 183.391 C 78.731 196.264 95.165 195.169 124.064 212.016 C 154.877 194.623 170.627 196.537 155.423 183.803 C 150.905 181.338 147.347 177.912 144.88 172.435 C 143.101 168.601 141.73 163.808 141.455 157.369 C 141.455 157.369 129.952 166.272 122.831 164.903 C 115.706 163.533 107.63 157.369 107.63 157.369 L 107.63 157.369 Z " fill-rule="evenodd" fill="rgb(239,186,129)"/></g><clipPath id="_clipPath_eiuV9TrcaCE0Q3bq4OAtVtarplRPlGDv"><path d=" M -32 -28 L -32 572 L 568 572 L 568 -28 L -32 -28 Z " fill="rgb(255,255,255)"/></clipPath><g clip-path="url(#_clipPath_eiuV9TrcaCE0Q3bq4OAtVtarplRPlGDv)"><path d=" M 124.61 79.307 C 94.754 79.307 90.37 100.808 90.37 127.378 C 90.37 154.631 113.245 175.447 124.61 175.447 C 135.839 175.447 158.714 154.631 158.714 127.378 C 158.714 100.808 154.332 79.307 124.61 79.307 L 124.61 79.307 Z " fill-rule="evenodd" fill="rgb(253,210,156)"/></g><clipPath id="_clipPath_ewCiJgTULlwrOJCdQgL4FzfaqZy3IbCH"><path d=" M -32 -28 L -32 572 L 568 572 L 568 -28 L -32 -28 Z " fill="rgb(255,255,255)"/></clipPath><g clip-path="url(#_clipPath_ewCiJgTULlwrOJCdQgL4FzfaqZy3IbCH)"><path d=" M 90.787 124.363 C 89.14 118.476 87.087 118.476 86.129 119.983 C 85.167 121.488 88.32 127.239 88.454 132.033 C 88.454 136.827 89.96 137.514 91.745 135.732 C 93.386 134.088 90.787 124.363 90.787 124.363 L 90.787 124.363 Z " fill-rule="evenodd" fill="rgb(253,210,156)"/></g><clipPath id="_clipPath_FqjAG0NuDpTIJIGehqPOWFxqUXStXqvR"><path d=" M -32 -28 L -32 572 L 568 572 L 568 -28 L -32 -28 Z " fill="rgb(255,255,255)"/></clipPath><g clip-path="url(#_clipPath_FqjAG0NuDpTIJIGehqPOWFxqUXStXqvR)"><path d=" M 112.424 155.728 C 112.424 155.728 119.816 152.165 122.011 152.165 C 122.969 152.165 124.064 153.4 124.61 153.4 C 125.022 153.4 126.115 152.165 127.079 152.165 C 129.266 152.165 136.661 155.728 136.661 155.728 C 136.661 155.728 135.02 156.959 133.514 157.643 C 130.088 158.877 127.352 160.11 124.61 160.11 C 121.739 160.11 118.997 158.877 115.57 157.643 C 114.065 156.959 112.424 155.728 112.424 155.728 L 112.424 155.728 Z " fill-rule="evenodd" fill="rgb(255,153,0)"/></g><clipPath id="_clipPath_neugcHCaSoRGVDnezHPgDE1LbKd7InIe"><path d=" M -32 -28 L -32 572 L 568 572 L 568 -28 L -32 -28 Z " fill="rgb(255,255,255)"/></clipPath><g clip-path="url(#_clipPath_neugcHCaSoRGVDnezHPgDE1LbKd7InIe)"><path d=" M 158.576 124.911 C 159.944 119.707 161.86 119.707 162.686 120.94 C 163.508 122.311 160.631 127.516 160.631 131.759 C 160.492 136.006 159.26 136.554 157.757 135.046 C 156.11 133.541 158.576 124.911 158.576 124.911 L 158.576 124.911 Z " fill-rule="evenodd" fill="rgb(253,210,156)"/></g><clipPath id="_clipPath_S5HCSLy36h509yxNLir5f4Jy2HmJ6ejG"><path d=" M -32 -28 L -32 572 L 568 572 L 568 -28 L -32 -28 Z " fill="rgb(255,255,255)"/></clipPath><g clip-path="url(#_clipPath_S5HCSLy36h509yxNLir5f4Jy2HmJ6ejG)"><path d=" M 124.61 61.094 C 143.784 61.094 156.519 70.815 160.218 88.345 C 165.422 113.682 158.714 125.05 158.031 127.378 C 158.031 127.378 155.834 96.565 124.61 86.977 C 93.25 96.565 91.059 127.378 91.059 127.378 C 90.37 125.05 83.663 113.682 89.003 88.345 C 92.564 70.815 105.3 61.094 124.61 61.094 L 124.61 61.094 Z " fill-rule="evenodd" fill="rgb(54,53,53)"/></g><clipPath id="_clipPath_iSlDyW0pkiUMKnLzSrVBR7Vqu6sWZlQc"><path d=" M -32 -28 L -32 572 L 568 572 L 568 -28 L -32 -28 Z " fill="rgb(255,255,255)"/></clipPath><g clip-path="url(#_clipPath_iSlDyW0pkiUMKnLzSrVBR7Vqu6sWZlQc)"><path d=" M 144.88 172.708 C 156.382 184.762 170.901 189.144 190.487 192.019 C 202.809 193.801 209.524 200.511 213.218 207.632 C 191.717 232.695 159.809 248.445 124.337 248.445 L 124.337 248.445 L 124.337 248.445 C 88.728 248.445 56.82 232.695 35.458 207.632 C 39.015 200.511 45.728 193.801 58.052 192.019 C 77.774 189.144 92.154 184.897 103.657 172.846 C 129.54 195.717 118.997 195.579 144.88 172.708 L 144.88 172.708 Z " fill-rule="evenodd" fill="rgb(254,254,254)"/></g><clipPath id="_clipPath_v5ApNPobGT2j2o1cTcccJ7ulxc4p5YUu"><path d=" M -32 -28 L -32 572 L 568 572 L 568 -28 L -32 -28 Z " fill="rgb(255,255,255)"/></clipPath><g clip-path="url(#_clipPath_v5ApNPobGT2j2o1cTcccJ7ulxc4p5YUu)"><path d=" M 35.458 207.632 C 56.137 231.735 86.677 247.484 120.776 248.445 L 121.601 248.445 L 81.884 186.679 C 74.894 189.144 66.953 190.513 58.052 192.019 C 45.728 193.801 39.015 200.511 35.458 207.632 L 35.458 207.632 Z  M 166.791 186.542 C 173.641 189.007 181.582 190.649 190.487 192.019 C 202.809 193.801 209.524 200.511 213.218 207.632 C 192.402 231.735 161.998 247.484 127.9 248.445 L 126.941 248.445 L 166.791 186.542 Z " fill-rule="evenodd" fill="rgb(80,167,176)"/></g><clipPath id="_clipPath_Pm7nuNyZt33kv9YzTlZfPx807vltDXwZ"><path d=" M -30 -28 L -30 572 L 570 572 L 570 -28 L -30 -28 Z " fill="rgb(255,255,255)"/></clipPath><g clip-path="url(#_clipPath_Pm7nuNyZt33kv9YzTlZfPx807vltDXwZ)"><path d=" M 209.062 121.25 L 192.488 121.25 L 196.052 107.283 L 205.501 107.283 L 209.062 121.25 Z " fill-rule="evenodd" fill="rgb(255,153,0)"/><path d=" M 199.204 111.937 L 202.487 111.937 L 202.487 91.121 L 202.487 70.304 L 199.204 70.304 L 199.204 111.937 Z " fill-rule="evenodd" fill="rgb(255,153,0)"/><path d=" M 207.418 107.283 C 207.418 103.583 204.544 100.571 200.845 100.571 C 197.143 100.571 194.273 103.583 194.273 107.283 C 194.273 110.842 197.143 113.853 200.845 113.853 C 204.544 113.853 207.418 110.842 207.418 107.283 L 207.418 107.283 Z " fill-rule="evenodd" fill="rgb(66,84,102)"/><path d=" M 30.75 69.209 L 125.656 33.051 L 220.703 69.209 L 172.357 87.696 L 172.357 73.179 C 172.357 62.498 148.118 57.567 125.656 57.567 C 103.197 57.567 78.955 62.498 78.955 73.179 L 78.955 87.696 L 30.75 69.209 Z " fill-rule="evenodd" fill="rgb(66,84,102)"/><path d=" M 114.497 91.12 C 117.924 90.846 121.623 90.71 125.453 90.71 C 129.424 90.71 133.123 90.846 136.41 91.12 C 149.422 91.804 162.508 93.996 171 98.653 L 173.389 73.041 C 173.389 62.087 148.6 57.02 125.453 57.02 C 102.446 57.02 77.658 62.087 77.658 73.041 L 80.25 98.653 C 88.742 93.996 101.49 91.804 114.497 91.12 L 114.497 91.12 Z " fill-rule="evenodd" fill="rgb(61,72,88)"/></g></g></svg>