<svg height="423pt" viewBox="-3 0 423 423.25333" width="423pt" xmlns="http://www.w3.org/2000/svg"><path d="m375.59375 423.253906h-314.027344c-3.773437 0-6.828125-3.058594-6.828125-6.828125v-44.457031c0-31.949219 29.816407-57.941406 66.460938-57.941406h29.113281c3.773438 0 6.828125 3.054687 6.828125 6.824218 0 3.773438-3.054687 6.828126-6.828125 6.828126h-29.113281c-29.117188 0-52.804688 19.871093-52.804688 44.289062v37.632812h300.371094v-43.480468c0-21.199219-20.625-38.441406-45.976563-38.441406h-42.46875c-3.773437 0-6.828124-3.054688-6.828124-6.828126 0-3.769531 3.054687-6.824218 6.828124-6.824218h42.46875c32.878907 0 59.632813 23.367187 59.632813 52.09375v50.304687c0 3.769531-3.054687 6.828125-6.828125 6.828125zm0 0"/><path d="m109.351562 416.425781c-3.773437 0-6.824218-3.054687-6.824218-6.824219v-20.480468c0-3.769532 3.050781-6.828125 6.824218-6.828125 3.773438 0 6.828126 3.058593 6.828126 6.828125v20.480468c0 3.769532-3.054688 6.824219-6.828126 6.824219zm0 0"/><path d="m327.808594 416.425781c-3.773438 0-6.828125-3.054687-6.828125-6.824219v-20.480468c0-3.769532 3.054687-6.828125 6.828125-6.828125 3.773437 0 6.824218 3.058593 6.824218 6.828125v20.480468c0 3.769532-3.050781 6.824219-6.824218 6.824219zm0 0"/><path d="m324.273438 189.214844c-2.707032 0-5.273438-1.628906-6.339844-4.300782-1.398438-3.503906.308594-7.476562 3.804687-8.871093 7.835938-3.125 12.894531-10.59375 12.894531-19.03125 0-8.25-4.914062-15.660157-12.511718-18.871094-3.472656-1.46875-5.09375-5.472656-3.628906-8.949219 1.46875-3.46875 5.472656-5.089844 8.949218-3.625 12.660156 5.355469 20.84375 17.695313 20.84375 31.445313 0 14.058593-8.429687 26.503906-21.480468 31.710937-.832032.328125-1.683594.492188-2.53125.492188zm0 0"/><path d="m112.378906 189.003906c-.886718 0-1.792968-.179687-2.660156-.542968-12.660156-5.355469-20.84375-17.695313-20.84375-31.449219 0-15.382813 10.359375-28.929688 25.191406-32.949219 3.648438-.964844 7.394532 1.167969 8.375 4.804688.984375 3.640624-1.167968 7.386718-4.800781 8.375-8.898437 2.40625-15.113281 10.539062-15.113281 19.769531 0 8.25 4.914062 15.660156 12.511718 18.875 3.472657 1.464843 5.09375 5.472656 3.628907 8.945312-1.101563 2.605469-3.628907 4.171875-6.289063 4.171875zm0 0"/><path d="m218.578125 375.464844c-18.816406 0-34.132813-15.3125-34.132813-34.132813v-40.957031c0-3.773438 3.054688-6.828125 6.828126-6.828125 3.773437 0 6.828124 3.054687 6.828124 6.828125v40.957031c0 11.292969 9.183594 20.480469 20.476563 20.480469s20.480469-9.1875 20.480469-20.480469v-40.957031c0-3.773438 3.054687-6.828125 6.828125-6.828125 3.773437 0 6.828125 3.054687 6.828125 6.828125v40.957031c0 18.820313-15.316406 34.132813-34.136719 34.132813zm0 0"/><path d="m218.578125 307.199219c-60.226563 0-109.226563-49-109.226563-109.226563v-88.660156c0-3.769531 3.054688-6.824219 6.828126-6.824219 3.773437 0 6.828124 3.054688 6.828124 6.824219v88.660156c0 52.699219 42.871094 95.574219 95.570313 95.574219 52.703125 0 95.574219-42.875 95.574219-95.574219v-90.671875c0-3.769531 3.054687-6.828125 6.828125-6.828125 3.773437 0 6.828125 3.058594 6.828125 6.828125v90.671875c0 60.226563-49.003906 109.226563-109.230469 109.226563zm0 0"/><path d="m170.792969 180.90625c0 5.65625-4.585938 10.242188-10.238281 10.242188-5.65625 0-10.242188-4.585938-10.242188-10.242188s4.585938-10.238281 10.242188-10.238281c5.652343 0 10.238281 4.582031 10.238281 10.238281zm0 0"/><path d="m286.847656 180.90625c0 5.65625-4.585937 10.242188-10.242187 10.242188-5.652344 0-10.238281-4.585938-10.238281-10.242188s4.585937-10.238281 10.238281-10.238281c5.65625 0 10.242187 4.582031 10.242187 10.238281zm0 0"/><path d="m218.578125 423.253906c-3.773437 0-6.824219-3.058594-6.824219-6.828125v-47.785156c0-3.769531 3.050782-6.828125 6.824219-6.828125s6.828125 3.058594 6.828125 6.828125v47.785156c0 3.769531-3.054688 6.828125-6.828125 6.828125zm0 0"/><path d="m225.40625 266.238281h-13.652344c-7.539062 0-13.652344-6.113281-13.652344-13.652343 0-7.539063 6.113282-13.652344 13.652344-13.652344h13.652344c7.539062 0 13.652344 6.113281 13.652344 13.652344 0 7.539062-6.113282 13.652343-13.652344 13.652343zm0 0"/><path d="m160.554688 177.492188h-20.480469c-1.886719 0-3.414063-1.527344-3.414063-3.414063 0-1.882813 1.527344-3.410156 3.414063-3.410156h20.480469c1.882812 0 3.410156 1.527343 3.410156 3.410156 0 1.886719-1.527344 3.414063-3.410156 3.414063zm0 0"/><path d="m297.085938 177.492188h-20.480469c-1.882813 0-3.414063-1.527344-3.414063-3.414063 0-1.882813 1.53125-3.410156 3.414063-3.410156h20.480469c1.886718 0 3.414062 1.527343 3.414062 3.410156 0 1.886719-1.527344 3.414063-3.414062 3.414063zm0 0"/><path d="m290.519531 150.1875c-1.074219 0-2.160156-.253906-3.160156-.78125l-61.816406-32.394531-44.539063 25.449219c-2.113281 1.210937-4.714844 1.199218-6.8125-.023438-2.105468-1.222656-3.398437-3.46875-3.398437-5.902344v-19.660156l-21.753907 30.453125c-2.558593 3.589844-8.546874 3.589844-11.105468 0l-34.132813-47.789063c-.828125-1.15625-1.273437-2.542968-1.273437-3.964843 0-45.171875 36.746094-81.921875 81.917968-81.921875h68.269532c45.171875 0 81.917968 36.75 81.917968 81.921875 0 1.519531-.507812 3-1.445312 4.199219l-37.28125 47.785156c-1.328125 1.707031-3.332031 2.628906-5.386719 2.628906zm-65.113281-47.789062c1.085938 0 2.171875.261718 3.167969.78125l60.070312 31.488281 32.292969-41.394531c-1.210938-36.578126-31.351562-65.964844-68.222656-65.964844h-68.269532c-36.925781 0-67.097656 29.46875-68.230468 66.125l27.273437 38.179687 28.578125-40.007812c1.726563-2.414063 4.820313-3.433594 7.640625-2.53125 2.820313.902343 4.738281 3.53125 4.738281 6.5v29.195312l37.574219-21.46875c1.046875-.601562 2.21875-.902343 3.386719-.902343zm102.402344-6.824219h.066406zm0 0"/><path d="m157.140625 395.945312c-1.234375 0-2.460937-.332031-3.539063-.988281-1.835937-1.113281-3.039062-3.023437-3.253906-5.15625l-6.828125-68.265625c-.191406-1.921875.441407-3.832031 1.734375-5.261718 1.292969-1.429688 3.132813-2.246094 5.058594-2.246094h40.960938c3.773437 0 6.828124 3.054687 6.828124 6.824218v54.613282c0 2.792968-1.703124 5.300781-4.296874 6.34375l-34.132813 13.652344c-.8125.324218-1.671875.484374-2.53125.484374zm.71875-68.265624 5.167969 51.730468 21.417968-8.566406v-43.164062zm33.414063 47.785156h.066406zm0 0"/><path d="m280.019531 395.945312c-.859375 0-1.71875-.160156-2.53125-.484374l-34.132812-13.652344c-2.59375-1.042969-4.296875-3.550782-4.296875-6.34375v-54.613282c0-3.769531 3.054687-6.824218 6.828125-6.824218h40.960937c1.925782 0 3.765625.816406 5.058594 2.246094 1.292969 1.425781 1.925781 3.339843 1.734375 5.257812l-6.828125 68.269531c-.210938 2.132813-1.417969 4.042969-3.25 5.15625-1.082031.65625-2.308594.988281-3.542969.988281zm-27.304687-25.101562 21.417968 8.566406 5.167969-51.730468h-26.585937zm0 0"/><path d="m372.179688 88.746094c-24.464844 0-44.371094-19.90625-44.371094-44.371094 0-24.46875 19.90625-44.375 44.371094-44.375 24.46875 0 44.375 19.90625 44.375 44.375 0 24.464844-19.90625 44.371094-44.375 44.371094zm0-75.09375c-16.941407 0-30.71875 13.78125-30.71875 30.722656 0 16.9375 13.777343 30.71875 30.71875 30.71875 16.941406 0 30.71875-13.78125 30.71875-30.71875 0-16.941406-13.777344-30.722656-30.71875-30.722656zm0 0"/><path d="m47.914062 129.707031c-26.347656 0-47.789062-21.4375-47.789062-47.785156 0-26.351563 21.441406-47.789063 47.789062-47.789063 26.347657 0 47.785157 21.4375 47.785157 47.789063 0 26.347656-21.4375 47.785156-47.785157 47.785156zm0-81.921875c-18.820312 0-34.132812 15.316406-34.132812 34.136719 0 18.816406 15.3125 34.132813 34.132812 34.132813 18.820313 0 34.132813-15.316407 34.132813-34.132813 0-18.820313-15.3125-34.136719-34.132813-34.136719zm0 0"/><path d="m327 89.136719c-2.648438 0-5.167969-1.550781-6.273438-4.140625-1.488281-3.464844.117188-7.480469 3.585938-8.960938l18.914062-8.109375c3.425782-1.484375 7.472657.117188 8.960938 3.585938 1.484375 3.46875-.121094 7.480469-3.589844 8.960937l-18.910156 8.109375c-.875.375-1.785156.554688-2.6875.554688zm0 0"/><path d="m313.550781 57.765625c-2.644531 0-5.164062-1.554687-6.273437-4.140625-1.484375-3.46875.121094-7.480469 3.589844-8.964844l19.3125-8.28125c3.433593-1.492187 7.472656.117188 8.960937 3.585938 1.484375 3.464844-.121094 7.480468-3.589844 8.960937l-19.3125 8.28125c-.871093.375-1.785156.558594-2.6875.558594zm0 0"/><path d="m109.351562 106.226562h-22.164062c-3.773438 0-6.828125-3.058593-6.828125-6.828124 0-3.769532 3.054687-6.824219 6.828125-6.824219h22.164062c3.773438 0 6.828126 3.054687 6.828126 6.824219 0 3.769531-3.054688 6.828124-6.828126 6.828124zm0 0"/><path d="m111.394531 72.09375h-24.207031c-3.773438 0-6.828125-3.058594-6.828125-6.828125s3.054687-6.824219 6.828125-6.824219h24.207031c3.773438 0 6.828125 3.054688 6.828125 6.824219s-3.054687 6.828125-6.828125 6.828125zm0 0"/></svg>