<?xml version="1.0" encoding="UTF-8" standalone="no"?>
<svg
   xmlns:dc="http://purl.org/dc/elements/1.1/"
   xmlns:cc="http://creativecommons.org/ns#"
   xmlns:rdf="http://www.w3.org/1999/02/22-rdf-syntax-ns#"
   xmlns:svg="http://www.w3.org/2000/svg"
   xmlns="http://www.w3.org/2000/svg"
   xmlns:sodipodi="http://sodipodi.sourceforge.net/DTD/sodipodi-0.dtd"
   xmlns:inkscape="http://www.inkscape.org/namespaces/inkscape"
   version="1.1"
   width="24"
   height="24"
   viewBox="0 0 24 24"
   id="svg4"
   sodipodi:docname="account-group.svg"
   inkscape:version="0.92.3 (2405546, 2018-03-11)">
  <metadata
     id="metadata10">
    <rdf:RDF>
      <cc:Work
         rdf:about="">
        <dc:format>image/svg+xml</dc:format>
        <dc:type
           rdf:resource="http://purl.org/dc/dcmitype/StillImage" />
      </cc:Work>
    </rdf:RDF>
  </metadata>
  <defs
     id="defs8" />
  <sodipodi:namedview
     pagecolor="#ffffff"
     bordercolor="#666666"
     borderopacity="1"
     objecttolerance="10"
     gridtolerance="10"
     guidetolerance="10"
     inkscape:pageopacity="0"
     inkscape:pageshadow="2"
     inkscape:window-width="819"
     inkscape:window-height="480"
     id="namedview6"
     showgrid="false"
     inkscape:zoom="9.8333333"
     inkscape:cx="12"
     inkscape:cy="12"
     inkscape:window-x="150"
     inkscape:window-y="107"
     inkscape:window-maximized="0"
     inkscape:current-layer="svg4" />
  <path
     d="M12,6C10.34,6 9,7.34 9,9C9,10.66 10.34,12 12,12C13.66,12 15,10.66 15,9C15,7.34 13.66,6 12,6M6,8.17C4.62,8.17 3.5,9.29 3.5,10.67C3.5,12.05 4.62,13.17 6,13.17C6.88,13.17 7.65,12.71 8.09,12.03C7.42,11.18 7,10.15 7,9C7,8.8 7,8.6 7.04,8.4C6.72,8.25 6.37,8.17 6,8.17M18,8.17C17.63,8.17 17.28,8.25 16.96,8.4C17,8.6 17,8.8 17,9C17,10.15 16.58,11.18 15.91,12.03C16.35,12.71 17.12,13.17 18,13.17C19.38,13.17 20.5,12.05 20.5,10.67C20.5,9.29 19.38,8.17 18,8.17M12,14C10,14 6,15 6,17V19H18V17C18,15 14,14 12,14M4.67,14.97C3,15.26 1,16.04 1,17.33V19H4V17C4,16.22 4.29,15.53 4.67,14.97M19.33,14.97C19.71,15.53 20,16.22 20,17V19H23V17.33C23,16.04 21,15.26 19.33,14.97Z"
     id="path2"
     style="fill:#7b8f57;fill-opacity:1" />
</svg>
